<?xml version="1.0" encoding="UTF-8"?>
<svg version="1.1" xmlns="http://www.w3.org/2000/svg" width="957" height="958">
<path d="M0 0 C3.96179054 3.4768256 7.73488138 7.09224143 11.36816406 10.90820312 C12.15191406 11.69195312 12.93566406 12.47570312 13.74316406 13.28320312 C14.60941406 14.14945313 15.47566406 15.01570313 16.36816406 15.90820312 C17.00238281 16.50761719 17.63660156 17.10703125 18.29003906 17.72460938 C53.70457487 51.82051885 79.84254542 107.65846911 81.01338196 156.8535614 C81.10422042 163.0330871 81.04584899 169.20944209 80.95501709 175.3885498 C80.92253639 178.16560908 80.92374237 180.94222991 80.92505836 183.71944618 C80.92263421 203.57144746 79.87329997 223.33063351 76.36816406 242.90820312 C77.09374512 243.07980957 77.81932617 243.25141602 78.56689453 243.42822266 C85.99588218 245.22915324 93.24471952 247.36081972 100.49316406 249.78320312 C101.49992188 250.10933594 102.50667969 250.43546875 103.54394531 250.77148438 C115.92192383 254.88680194 126.31740666 259.6869413 133.11425781 271.30664062 C144.74377066 295.4351626 146.04785607 320.91467631 138.24316406 346.40820312 C127.20141676 377.48989778 104.4261848 402.88205092 75.25170898 417.93579102 C73.96954796 418.59772846 72.69642379 419.27740195 71.43188477 419.97241211 C66.5333953 422.59005942 61.87809164 423.96581086 56.43066406 424.97070312 C55.58238037 425.13570312 54.73409668 425.30070312 53.86010742 425.47070312 C46.75234055 426.79200645 39.61387338 427.61944172 32.43066406 428.40820312 C7.98542811 431.13967893 -10.60847488 441.67381152 -26.17871094 461.02539062 C-28.52531188 463.99695059 -30.83911255 466.99375668 -33.15185547 469.99169922 C-40.43688421 479.42546293 -47.90237134 488.45056772 -56.31933594 496.90820312 C-57.01502686 497.60929199 -57.71071777 498.31038086 -58.42749023 499.03271484 C-63.37361106 503.90820312 -63.37361106 503.90820312 -65.63183594 503.90820312 C-65.94677002 504.71100708 -65.94677002 504.71100708 -66.26806641 505.5300293 C-68.16091634 508.83082615 -70.76542929 511.30703901 -73.45214844 513.95898438 C-74.02963837 514.53601608 -74.6071283 515.11304779 -75.20211792 515.70756531 C-76.4253496 516.92777974 -77.65100699 518.14556663 -78.87890625 519.36108398 C-80.7345462 521.19863072 -82.5822213 523.04388851 -84.42871094 524.890625 C-90.32989727 530.77385428 -96.27641151 536.51247726 -102.63183594 541.90820312 C-104.17664854 543.32143863 -105.71878918 544.73760721 -107.25683594 546.15820312 C-111.70042372 550.16827015 -116.31792178 553.88040425 -121.04541016 557.54443359 C-124.88268879 560.52101421 -128.65792311 563.55941536 -132.40258789 566.65161133 C-140.82820714 573.59726489 -149.53706832 580.05610014 -158.44970703 586.36132812 C-160.47174634 587.79471826 -162.48473418 589.23978214 -164.49511719 590.68945312 C-185.73295833 605.93332971 -207.74871076 620.14104063 -229.82763672 634.12695312 C-232.51765397 635.83567382 -235.19894316 637.55725397 -237.87792969 639.28320312 C-260.83504775 654.03053579 -285.62888921 668.26057635 -314.00683594 662.84570312 C-336.25643159 657.62905856 -357.47123857 648.43788155 -377.68701172 637.91748047 C-379.67157567 636.88757997 -381.66484391 635.8760621 -383.65917969 634.86523438 C-424.21944581 614.09338904 -461.18176353 585.42594941 -495.79052734 555.99780273 C-499.26481643 553.04780795 -502.7767296 550.15126523 -506.31933594 547.28320312 C-510.7169769 543.70654 -514.92451751 539.96495489 -519.11230469 536.14648438 C-521.6638851 533.87973154 -524.28355125 531.73280226 -526.94433594 529.59570312 C-531.75769031 525.70564381 -536.27945044 521.57948478 -540.79296875 517.35253906 C-545.00576735 513.42941719 -549.39578946 509.78923898 -553.88574219 506.18554688 C-557.42419431 503.25109796 -560.77868139 500.13451554 -564.140625 497.00268555 C-567.47344643 493.91728117 -570.90336431 491.00648126 -574.44433594 488.15820312 C-578.1902672 485.14213812 -581.63355519 482.02464644 -584.97558594 478.57226562 C-586.69314153 476.84660836 -588.47785674 475.25062981 -590.31933594 473.65820312 C-617.13267249 450.37840705 -617.13267249 450.37840705 -623.73168945 434.21411133 C-626.29660979 428.32873565 -626.29660979 428.32873565 -631.30688477 424.64990234 C-634.60562961 423.90126958 -637.83097069 423.45469031 -641.19433594 423.09570312 C-643.63429935 422.73897471 -646.07311285 422.3742968 -648.51074219 422.00195312 C-649.71746582 421.82664062 -650.92418945 421.65132812 -652.16748047 421.47070312 C-682.26209974 416.58430405 -709.64670744 401.66573561 -731.63183594 380.90820312 C-732.69724609 379.92207031 -732.69724609 379.92207031 -733.78417969 378.91601562 C-753.06300001 360.48827566 -763.1662906 331.91754942 -763.88183594 305.59570312 C-763.82661071 304.03195734 -763.73795423 302.46932119 -763.63183594 300.90820312 C-763.52935547 299.00941406 -763.52935547 299.00941406 -763.42480469 297.07226562 C-762.38918134 282.86085123 -757.53305893 270.61984722 -746.63183594 260.90820312 C-731.83452599 248.74674557 -709.48384061 242.5710166 -690.63183594 242.90820312 C-690.67260254 242.34125732 -690.71336914 241.77431152 -690.75537109 241.19018555 C-693.7366245 197.4871213 -680.0313322 157.05849678 -655.63183594 120.90820312 C-655.23673828 120.32167969 -654.84164062 119.73515625 -654.43457031 119.13085938 C-619.68365579 68.05668385 -569.97133302 32.51805329 -508.98193359 20.38085938 C-497.32236249 18.19228756 -485.72200123 16.76547409 -473.84667969 16.70507812 C-472.49673668 16.69652802 -472.49673668 16.69652802 -471.11952209 16.68780518 C-469.22625883 16.67842696 -467.33297978 16.67185008 -465.43969727 16.66796875 C-462.60044534 16.65830897 -459.76193303 16.62723479 -456.92285156 16.59570312 C-441.83872897 16.50728409 -427.82326641 18.31938202 -413.31933594 22.59570312 C-412.4438208 22.85206543 -411.56830566 23.10842773 -410.66625977 23.37255859 C-387.20562234 30.44715389 -365.01730315 41.54432203 -344.22973633 54.42675781 C-343.01338501 55.15620605 -343.01338501 55.15620605 -341.77246094 55.90039062 C-341.06637695 56.33722168 -340.36029297 56.77405273 -339.6328125 57.22412109 C-337.66011408 58.10865923 -337.66011408 58.10865923 -335.72875977 57.3815918 C-332.81914094 55.33716874 -330.40477173 52.88577802 -327.94042969 50.34179688 C-327.39508072 49.78887466 -326.84973175 49.23595245 -326.28785706 48.66627502 C-323.96761791 46.31362228 -321.65913344 43.94957334 -319.3503418 41.58569336 C-312.10243874 34.18002412 -304.79691397 27.31000073 -296.63183594 20.90820312 C-295.38774864 19.88473911 -294.14646594 18.85784747 -292.90917969 17.82617188 C-219.73843319 -42.3213862 -115.92378128 -67.49319516 0 0 Z " fill="#690E25" transform="translate(763.6318359375,205.091796875)"/>
<path d="M0 0 C0.89589844 0.7940625 1.79179688 1.588125 2.71484375 2.40625 C4.16697266 3.69015625 4.16697266 3.69015625 5.6484375 5 C7.52045476 6.68659357 9.38059551 8.38649621 11.2265625 10.1015625 C13.3933876 12.10851197 15.59658232 14.04848282 17.83984375 15.96875 C19.13554745 17.11001629 20.42718874 18.25591032 21.71484375 19.40625 C22.38644531 19.99921875 23.05804687 20.5921875 23.75 21.203125 C31.00361241 27.99598163 36.51394323 36.04842195 42.15429688 44.17529297 C43.54968453 46.17013846 44.97582675 48.13653714 46.41796875 50.09765625 C57.4390578 65.3983242 63.98550493 83.27711785 68.71484375 101.40625 C69.05161133 102.467229 69.38837891 103.52820801 69.73535156 104.62133789 C70.77331671 108.63219874 71.15757078 112.44242825 71.32421875 116.55859375 C71.36133972 117.36570297 71.39846069 118.17281219 71.43670654 119.00437927 C71.89232641 130.06883666 71.93764713 141.14374945 71.95507812 152.21606445 C71.96490911 155.99386616 71.99610512 159.77115031 72.02734375 163.54882812 C72.03386501 165.98176767 72.03911891 168.41471101 72.04296875 170.84765625 C72.05531555 171.961371 72.06766235 173.07508575 72.0803833 174.22254944 C72.06308545 180.32691879 71.39583005 185.45103165 69.43817139 191.23710632 C68.52185739 193.98498518 68.05524042 196.70554119 67.65234375 199.5703125 C67.49507812 200.62992188 67.3378125 201.68953125 67.17578125 202.78125 C66.86740337 204.95557539 66.56011925 207.13005617 66.25390625 209.3046875 C65.80034201 212.35323405 65.28999807 215.37840813 64.71484375 218.40625 C64.55975342 219.22287109 64.40466309 220.03949219 64.24487305 220.88085938 C63.6640625 223.0390625 63.6640625 223.0390625 61.71484375 226.40625 C58.75833716 227.90312508 55.79271629 228.25676135 52.52734375 228.65625 C51.61202881 228.79772461 50.69671387 228.93919922 49.75366211 229.08496094 C47.7838349 229.38829209 45.81173904 229.67716949 43.83789062 229.953125 C40.61274957 230.42106291 37.4084509 230.96480235 34.19921875 231.53125 C16.30207491 234.67095808 16.30207491 234.67095808 10.71484375 234.40625 C10.24812256 233.47111572 10.24812256 233.47111572 9.77197266 232.51708984 C1.35023183 215.74469077 -7.26362141 201.03127844 -20.28515625 187.40625 C-20.95675781 186.65988281 -21.62835937 185.91351563 -22.3203125 185.14453125 C-36.09871946 170.38747108 -59.86223727 156.47277627 -80.25697327 155.292099 C-82.40212185 155.22594197 -84.54534769 155.18982936 -86.69140625 155.16796875 C-87.48507599 155.1581749 -88.27874573 155.14838104 -89.09646606 155.13829041 C-106.52551515 154.96758817 -123.27926606 155.12504687 -140.28515625 159.40625 C-141.13529297 159.60992187 -141.98542969 159.81359375 -142.86132812 160.0234375 C-179.245697 168.89366738 -216.06967302 186.85201378 -245.02734375 210.63867188 C-251.88577447 216.12075086 -259.06425514 218.09878545 -267.83105469 217.85595703 C-275.1369451 216.90476604 -281.99117877 214.2876948 -288.91015625 211.84375 C-290.52281545 211.28788354 -292.1358551 210.73311961 -293.74926758 210.17944336 C-329.68884571 197.77835027 -329.68884571 197.77835027 -336.84765625 190.96875 C-343.1093732 175.4505819 -334.7363847 153.60368881 -328.7097168 139.01708984 C-316.14977514 109.96490169 -298.52001162 83.17250425 -277.78515625 59.3046875 C-275.44719334 56.59411175 -273.20451763 53.82928209 -270.97265625 51.03125 C-252.17908698 27.99397154 -229.67837943 10.65225837 -204.28515625 -4.59375 C-203.28718018 -5.19413086 -203.28718018 -5.19413086 -202.26904297 -5.80664062 C-180.47843041 -18.78263816 -158.39041933 -28.56885812 -133.28515625 -32.59375 C-132.14304687 -32.8 -131.0009375 -33.00625 -129.82421875 -33.21875 C-85.87162294 -40.33018123 -34.58366271 -28.59535065 0 0 Z " fill="#F63D59" transform="translate(732.28515625,229.59375)"/>
<path d="M0 0 C1.00353516 -0.00128906 2.00707031 -0.00257813 3.04101562 -0.00390625 C4.07806641 -0.00003906 5.11511719 0.00382813 6.18359375 0.0078125 C7.7449707 0.00201172 7.7449707 0.00201172 9.33789062 -0.00390625 C10.84125977 -0.00197266 10.84125977 -0.00197266 12.375 0 C13.28580322 0.00112793 14.19660645 0.00225586 15.13500977 0.00341797 C17.44100933 0.12343955 19.41242815 0.48333776 21.62109375 1.1328125 C22.32453609 5.72472779 22.56613648 9.55528023 20.12109375 13.63671875 C18.74034158 15.31681367 17.32211466 16.96655861 15.875 18.58984375 C13.70101212 21.04264463 11.89988413 23.55050863 10.05859375 26.2578125 C6.42475539 31.30920761 2.36484253 35.84561579 -1.87890625 40.3828125 C-2.49580322 41.0442627 -3.1127002 41.70571289 -3.74829102 42.38720703 C-6.89544311 45.70345363 -10.113508 48.82119751 -13.5859375 51.796875 C-16.61864865 54.40284719 -19.13821995 57.06362103 -21.56640625 60.2578125 C-29.99855285 70.82339378 -39.76837303 79.79495038 -50.37890625 88.1328125 C-51.50943699 89.05138969 -52.63825378 89.97207912 -53.765625 90.89453125 C-66.6829451 101.42472781 -80.28562007 110.96966367 -93.91577148 120.54516602 C-100.08403819 124.89300889 -106.15727903 129.36417574 -112.22460938 133.85131836 C-120.56020482 140.0141403 -128.94425185 146.1062636 -137.37890625 152.1328125 C-138.14219238 152.67873047 -138.90547852 153.22464844 -139.69189453 153.78710938 C-156.97822301 166.11445159 -174.7392712 177.7379738 -192.69140625 189.0703125 C-193.31241211 189.46508789 -193.93341797 189.85986328 -194.57324219 190.26660156 C-206.02522741 197.41682584 -220.15647664 197.76468832 -233.2421875 195.44921875 C-236.70325307 194.50457911 -240.02178708 193.39671604 -243.37890625 192.1328125 C-244.42304688 191.75511719 -245.4671875 191.37742187 -246.54296875 190.98828125 C-257.37424734 186.71005546 -267.31128009 180.66631133 -277.37207031 174.85742188 C-280.2559227 173.20335129 -283.15306696 171.57657579 -286.05859375 169.9609375 C-314.19772305 154.29796993 -341.25858094 136.96264375 -367.37890625 118.1328125 C-368.13913086 117.58657227 -368.89935547 117.04033203 -369.68261719 116.47753906 C-381.2844471 108.11830855 -392.45995963 99.36421168 -403.37890625 90.1328125 C-404.0013623 89.60945312 -404.62381836 89.08609375 -405.26513672 88.546875 C-418.28824338 77.58590512 -430.61048733 66.08841421 -442.49291992 53.89428711 C-446.88113287 49.43829895 -451.36349529 45.42977942 -456.35644531 41.66333008 C-464.90108602 35.19708761 -471.83741623 27.56550558 -478.37890625 19.1328125 C-479.11753906 18.25882813 -479.85617187 17.38484375 -480.6171875 16.484375 C-482.65321517 13.7666618 -482.75773677 12.44757955 -482.37890625 9.1328125 C-467.15549968 5.68456925 -449.43624613 7.38371775 -434.37890625 11.1328125 C-433.73373047 11.2884668 -433.08855469 11.44412109 -432.42382812 11.60449219 C-420.451746 14.58265164 -410.12749539 20.21983039 -399.37890625 26.1328125 C-367.82542444 43.40199641 -333.39953866 41.56457587 -299.25390625 32.8828125 C-280.61181958 28.23396298 -264.67860112 32.86353801 -248.37890625 42.1328125 C-246.58503593 43.21465901 -244.80036218 44.31066131 -243.01635742 45.40869141 C-206.96558756 67.59593277 -163.29513172 70.39681813 -122.58984375 60.80859375 C-116.23689077 59.1843305 -110.17124583 57.01310978 -104.06640625 54.6328125 C-102.94411621 54.19630371 -101.82182617 53.75979492 -100.66552734 53.31005859 C-77.25473027 44.05049048 -55.27458931 32.61932914 -35.37890625 17.1328125 C-12.56251598 0.01553805 -12.56251598 0.01553805 0 0 Z " fill="#DC2848" transform="translate(684.37890625,633.8671875)"/>
<path d="M0 0 C1.30195313 0.18175781 2.60390625 0.36351562 3.9453125 0.55078125 C24.22176466 3.94558588 43.88794894 12.52688307 62 22 C62.73911621 22.37624512 63.47823242 22.75249023 64.23974609 23.14013672 C72.79785199 27.54862202 80.73203424 32.35104937 84 42 C83.57453175 46.68757171 82.13801316 50.12980416 79.9375 54.26171875 C79.630401 54.84500946 79.323302 55.42830017 79.00689697 56.02926636 C78.35100304 57.27385654 77.69158616 58.51659555 77.02893066 59.75759888 C75.28522442 63.02816002 73.57459055 66.31599792 71.859375 69.6015625 C71.52041199 70.2493013 71.18144897 70.8970401 70.83221436 71.56440735 C56.69109311 98.61086889 45.38372689 127.09727929 39 157 C38.01644531 157.14695312 37.03289062 157.29390625 36.01953125 157.4453125 C9.6786969 161.60557885 -15.487508 169.74946655 -36.31640625 186.8125 C-39.44455996 189.36237785 -42.61916323 191.84508565 -45.8125 194.3125 C-46.35181152 194.73313721 -46.89112305 195.15377441 -47.44677734 195.5871582 C-48.94843488 196.7459194 -50.47375587 197.87381986 -52 199 C-52.74121094 199.58265625 -53.48242188 200.1653125 -54.24609375 200.765625 C-58.51599513 202.67950987 -62.62420566 202.47273805 -67.25 202.4375 C-68.13429687 202.45748047 -69.01859375 202.47746094 -69.9296875 202.49804688 C-76.5498364 202.4933848 -82.60485207 201.25197254 -88.9863739 199.64793396 C-98.72973154 197.24546493 -108.63461711 195.90129392 -118.5625 194.5 C-119.60749664 194.35036804 -120.65249329 194.20073608 -121.72915649 194.04656982 C-146.85574009 190.47580641 -172.10665627 188.33241384 -197.42822266 186.71386719 C-199.34513916 186.58866699 -199.34513916 186.58866699 -201.30078125 186.4609375 C-202.39173096 186.39438965 -203.48268066 186.3278418 -204.60668945 186.25927734 C-207 186 -207 186 -208 185 C-208.1135843 183.63210114 -208.1595172 182.25848149 -208.17700195 180.88598633 C-208.18983719 180.01029495 -208.20267242 179.13460358 -208.21589661 178.2323761 C-208.22328354 177.2752623 -208.23067047 176.3181485 -208.23828125 175.33203125 C-208.246353 174.34563156 -208.25442474 173.35923187 -208.26274109 172.34294128 C-208.27661356 170.24207326 -208.28732146 168.14118239 -208.29516602 166.0402832 C-208.31218693 162.87079677 -208.3560193 159.70240672 -208.40039062 156.53320312 C-208.51977551 141.06086047 -206.70909517 128.71207911 -199 115 C-198.34 115 -197.68 115 -197 115 C-196.77183594 114.20464844 -196.54367188 113.40929687 -196.30859375 112.58984375 C-191.17839429 98.51625179 -182.25066614 85.66722369 -173 74 C-172.20464844 72.99324219 -171.40929687 71.98648438 -170.58984375 70.94921875 C-168.42775647 68.26793384 -166.22998798 65.6249674 -164 63 C-163.32195312 62.19820313 -162.64390625 61.39640625 -161.9453125 60.5703125 C-158.22776343 56.27415657 -154.37633987 52.38646512 -150.03125 48.7265625 C-148.6905946 47.58700541 -147.3767368 46.41505216 -146.09375 45.2109375 C-128.48434074 28.75291269 -106.6155611 17.22391195 -85 7 C-84.28779297 6.66274902 -83.57558594 6.32549805 -82.84179688 5.97802734 C-72.82176567 1.33661649 -62.86435383 -0.65841785 -52 -2 C-51.26112549 -2.0942627 -50.52225098 -2.18852539 -49.76098633 -2.28564453 C-33.00437285 -4.30503591 -16.6107446 -2.49253144 0 0 Z " fill="#FA7784" transform="translate(322,258)"/>
<path d="M0 0 C1.70557987 1.62682294 3.3781275 3.28971197 5 5 C5.94875 5.763125 6.8975 6.52625 7.875 7.3125 C11.71392338 10.44712478 14.86282538 14.17917958 18 18 C18.51820313 18.60457031 19.03640625 19.20914062 19.5703125 19.83203125 C21.42056273 22.63773857 22.23926607 25.40609094 23.1875 28.625 C23.70376953 30.34589844 23.70376953 30.34589844 24.23046875 32.1015625 C25 35 25 35 25 37 C26.32 37 27.64 37 29 37 C29.76749866 48.40283731 30.12696844 59.80020073 30.17724609 71.2277832 C30.18397246 72.59531812 30.19410964 73.96284143 30.20800781 75.33032227 C30.33343893 88.74319942 29.35087577 101.72016923 24.875 114.4375 C24.41649658 115.76998779 24.41649658 115.76998779 23.94873047 117.12939453 C20.98830751 125.4740399 17.29953997 133.27171296 13 141 C12.49412354 141.93054199 12.49412354 141.93054199 11.97802734 142.87988281 C-2.88479893 170.00965494 -26.31120252 191.89671268 -51 210 C-51.76940918 210.5671875 -52.53881836 211.134375 -53.33154297 211.71875 C-59.61476308 216.24457515 -66.16479124 219.99921668 -73 223.625 C-74.52367187 224.44484375 -74.52367187 224.44484375 -76.078125 225.28125 C-79.0437885 226.87054146 -82.01849964 228.44064423 -85 230 C-85.88292725 230.46301514 -86.76585449 230.92603027 -87.67553711 231.40307617 C-122.65534689 249.3654994 -169.84732683 250.12003265 -206.94140625 238.47265625 C-213.2717869 236.29558951 -219.16283032 233.25642746 -225 230 C-225.18985697 225.87654385 -224.97958901 223.07759953 -223 219.4375 C-222.62875 218.71433594 -222.2575 217.99117187 -221.875 217.24609375 C-216.53086825 210.84426926 -207.91508692 208.08776352 -200.4375 204.9375 C-168.69543637 191.22910399 -138.93052034 173.93052034 -114.36328125 149.36328125 C-113.05447763 148.05447763 -111.73350459 146.75645635 -110.3671875 145.5078125 C-100.03474899 135.9327255 -92.58430654 123.31370311 -86 111 C-85.50628906 110.11699219 -85.01257813 109.23398437 -84.50390625 108.32421875 C-78.0603605 96.33578199 -77.18395699 83.31603392 -76 70 C-77.216875 69.85691406 -78.43375 69.71382813 -79.6875 69.56640625 C-82.83777718 69.1726216 -85.90633311 68.66257818 -89 67.9375 C-89.763125 67.76089844 -90.52625 67.58429688 -91.3125 67.40234375 C-91.869375 67.26957031 -92.42625 67.13679688 -93 67 C-93.10183594 67.92941406 -93.20367188 68.85882813 -93.30859375 69.81640625 C-94.04768162 74.99002133 -95.58852538 79.93419405 -97.0625 84.9375 C-97.34416016 85.90751953 -97.62582031 86.87753906 -97.91601562 87.87695312 C-98.60646466 90.25256591 -99.30122001 92.62682705 -100 95 C-103.85906708 94.40046172 -106.79401904 93.24894166 -110.2265625 91.40234375 C-111.24468018 90.85634521 -112.26279785 90.31034668 -113.31176758 89.74780273 C-114.95181763 88.85170288 -114.95181763 88.85170288 -116.625 87.9375 C-118.341427 87.00562866 -118.341427 87.00562866 -120.0925293 86.05493164 C-132.9319042 79.04740187 -145.48323912 71.5665973 -158 64 C-159.05912598 63.36513672 -160.11825195 62.73027344 -161.20947266 62.07617188 C-164.18744586 60.28985362 -167.15757306 58.49127038 -170.125 56.6875 C-171.45881714 55.88783813 -171.45881714 55.88783813 -172.81958008 55.07202148 C-174.02650513 54.33060913 -174.02650513 54.33060913 -175.2578125 53.57421875 C-175.9605127 53.14713623 -176.66321289 52.72005371 -177.38720703 52.2800293 C-179 51 -179 51 -180 48 C-179.3984375 45.94921875 -179.3984375 45.94921875 -178.375 43.6875 C-178.05273438 42.94886719 -177.73046875 42.21023438 -177.3984375 41.44921875 C-173.2401247 34.16636364 -168.17995004 30.98770463 -160.9375 27.0625 C-159.03886919 26.00685802 -157.1404303 24.95087079 -155.2421875 23.89453125 C-154.33307617 23.3938916 -153.42396484 22.89325195 -152.48730469 22.37744141 C-149.48345037 20.71394062 -146.5205378 18.99355886 -143.5625 17.25 C-142.655 16.72019531 -141.7475 16.19039063 -140.8125 15.64453125 C-138.74784069 14.43727907 -136.68569902 13.22571852 -134.625 12.01171875 C-99.549411 -8.51159288 -37.22057462 -24.4151025 0 0 Z " fill="#F9AA5C" transform="translate(678,427)"/>
<path d="M0 0 C1.02432632 -0.00696899 2.04865265 -0.01393799 3.10401917 -0.02111816 C6.39100299 -0.03841423 9.67781631 -0.04483795 12.96484375 -0.046875 C14.08727478 -0.04788208 15.20970581 -0.04888916 16.3661499 -0.04992676 C32.778887 -0.03995209 48.68265575 0.5315115 64.90234375 3.203125 C66.84208124 3.4868929 68.78219504 3.76809906 70.72265625 4.046875 C111.01258818 10.05443916 150.88231122 21.99309405 186.90234375 41.203125 C188.03285156 41.79222656 189.16335938 42.38132812 190.328125 42.98828125 C200.09402264 48.29363049 208.87291754 54.81824038 217.69824219 61.54394531 C219.16484636 62.6479597 220.64752306 63.73094683 222.14550781 64.79199219 C229.18497243 69.8201812 229.18497243 69.8201812 230.90234375 74.203125 C231.1953125 77.75390625 231.1953125 77.75390625 231.08984375 81.515625 C231.06277344 82.76988281 231.03570312 84.02414062 231.0078125 85.31640625 C230.95560547 86.74533203 230.95560547 86.74533203 230.90234375 88.203125 C161.43657421 120.89909641 60.30155115 150.99837375 -15.14746094 124.47924805 C-20.94263585 122.33839362 -26.57966539 119.98804388 -32.09765625 117.203125 C-32.74621582 116.88472656 -33.39477539 116.56632813 -34.06298828 116.23828125 C-53.13705886 106.83684362 -67.11965499 93.3416773 -75.09765625 73.203125 C-78.06970877 63.87339396 -79.73275845 53.97934524 -80.09765625 44.203125 C-80.175 42.82060547 -80.175 42.82060547 -80.25390625 41.41015625 C-80.4509837 35.4567751 -80.19495249 29.46159437 -77.09765625 24.203125 C-74.98828125 22.95703125 -74.98828125 22.95703125 -73.09765625 22.203125 C-73.09765625 21.543125 -73.09765625 20.883125 -73.09765625 20.203125 C-52.4929296 4.36733685 -25.29014056 0.11634706 0 0 Z " fill="#F9DFD6" transform="translate(113.09765625,467.796875)"/>
<path d="M0 0 C3.88083855 2.94904358 7.6911597 5.98339325 11.47265625 9.05859375 C21.05603264 16.92448876 21.05603264 16.92448876 32.27734375 21.58203125 C34.9644262 22.39560419 35.73353892 23.74050577 37.109375 26.13671875 C37.98656485 30.19627179 38.14243154 34.36367135 36.0078125 38.02734375 C35.00100974 39.17951376 33.95037686 40.29432968 32.8671875 41.375 C30.98912228 43.2572387 29.49264424 45.2430361 27.921875 47.38671875 C15.39243302 63.58668008 -4.52916961 81.28717553 -25.484375 84.7265625 C-26.7734375 84.84128906 -28.0625 84.95601562 -29.390625 85.07421875 C-30.6590625 85.20699219 -31.9275 85.33976563 -33.234375 85.4765625 C-44.90531827 85.37867632 -56.37414579 78.09922278 -66.328125 72.63671875 C-67.63116766 71.92936855 -68.93447595 71.22250749 -70.23803711 70.51611328 C-73.50476807 68.74176257 -76.76359112 66.95336288 -80.02087402 65.16174316 C-81.81961511 64.1756474 -83.62218389 63.19705322 -85.42675781 62.22167969 C-88.60991776 60.49866781 -91.78311025 58.75877202 -94.953125 57.01171875 C-95.89148193 56.50447266 -96.82983887 55.99722656 -97.79663086 55.47460938 C-103.01863322 52.55350786 -106.26497594 49.86948565 -109.890625 45.13671875 C-115.33914818 40.73360327 -121.04014378 37.96047807 -127.703125 35.88671875 C-136.24067483 33.03775518 -142.20997381 27.95957354 -148.890625 22.13671875 C-149.99819272 21.20382697 -151.10625379 20.27152054 -152.21484375 19.33984375 C-157.80440173 14.52523151 -157.80440173 14.52523151 -159.890625 12.13671875 C-159.890625 10.81671875 -159.890625 9.49671875 -159.890625 8.13671875 C-161.44290732 5.79353973 -162.99572984 3.67860797 -164.765625 1.51171875 C-165.26449219 0.89288818 -165.76335937 0.27405762 -166.27734375 -0.36352539 C-176.74782447 -13.16501345 -187.73229009 -21.35646602 -202.890625 -27.86328125 C-205.28838253 -28.92465233 -207.68316049 -29.99258666 -210.07788086 -31.06079102 C-213.67972846 -32.66704412 -217.28528892 -34.26487592 -220.890625 -35.86328125 C-220.890625 -36.52328125 -220.890625 -37.18328125 -220.890625 -37.86328125 C-222.210625 -38.52328125 -223.530625 -39.18328125 -224.890625 -39.86328125 C-220.71459943 -44.82988265 -216.39614323 -49.56817023 -211.828125 -54.17578125 C-211.22935547 -54.79517578 -210.63058594 -55.41457031 -210.01367188 -56.05273438 C-206.79142861 -59.30321197 -204.31840815 -61.44056096 -199.890625 -62.86328125 C-196.43108518 -64.6157841 -192.99384754 -66.40743104 -189.55859375 -68.20703125 C-136.54478291 -93.38328294 -40.82190493 -30.42326511 0 0 Z " fill="#FA586D" transform="translate(518.890625,512.86328125)"/>
<path d="M0 0 C1.04800781 0.53810303 2.09601563 1.07620605 3.17578125 1.63061523 C10.74520436 5.64695605 17.32391404 9.7750546 22 17.125 C22.49371094 17.88296875 22.98742187 18.6409375 23.49609375 19.421875 C24.5625 21.375 24.5625 21.375 24.5625 23.375 C23.2425 23.375 21.9225 23.375 20.5625 23.375 C20.8925 33.275 21.2225 43.175 21.5625 53.375 C10.95784884 56.90988372 10.95784884 56.90988372 5.5625 57.375 C4.77488281 57.45105469 3.98726562 57.52710938 3.17578125 57.60546875 C-13.23391707 58.49183202 -26.45631694 48.44797886 -39.70947266 40.08959961 C-46.16911087 36.02963548 -52.48177126 32.06656624 -59.5625 29.1875 C-60.67882812 28.71957031 -61.79515625 28.25164062 -62.9453125 27.76953125 C-76.60370025 23.12494955 -90.55408405 22.88617872 -104.8125 22.75 C-107.60902674 22.71340633 -110.40541766 22.67290677 -113.20181274 22.62734985 C-114.9245287 22.6002662 -116.64734555 22.57885357 -118.37020874 22.56381226 C-124.2158826 22.4858087 -124.2158826 22.4858087 -126.4375 21.375 C-135.09628786 20.49537711 -142.38188777 23.43541288 -150.375 26.375 C-152.36126059 27.09185316 -154.34888518 27.80470898 -156.33753967 28.51489258 C-158.12463721 29.15518047 -159.90801062 29.80583469 -161.69116211 30.45703125 C-164.4375 31.375 -164.4375 31.375 -166.4375 31.375 C-166.28539062 32.26445312 -166.13328125 33.15390625 -165.9765625 34.0703125 C-166.4375 37.375 -166.4375 37.375 -167.81152344 38.71386719 C-169.76433143 40.00639561 -171.74896886 41.14292308 -173.8125 42.25 C-174.51117187 42.6521875 -175.20984375 43.054375 -175.9296875 43.46875 C-181.06999362 46.375 -181.06999362 46.375 -183.4375 46.375 C-183.4375 44.725 -183.4375 43.075 -183.4375 41.375 C-192.01085793 46.34404827 -199.30614608 52.26802634 -206.68725586 58.82983398 C-207.86101941 59.86606631 -209.04433079 60.89157614 -210.23657227 61.90649414 C-215.91888749 66.76695379 -221.21057775 71.9955207 -226.4831543 77.2902832 C-227.9974258 78.80991668 -229.5169743 80.32412517 -231.03710938 81.83789062 C-235.84419072 86.6418331 -240.55997963 91.48533161 -244.96655273 96.6652832 C-247.05700604 99.09506652 -249.25977859 101.41270097 -251.46875 103.734375 C-251.7884375 104.27578125 -252.108125 104.8171875 -252.4375 105.375 C-252.2521167 105.99334717 -252.0667334 106.61169434 -251.87573242 107.2487793 C-251.31215993 109.98312629 -251.88286783 110.73543045 -253.39453125 113.03515625 C-253.84256104 113.73576172 -254.29059082 114.43636719 -254.75219727 115.15820312 C-255.24647217 115.91037109 -255.74074707 116.66253906 -256.25 117.4375 C-257.28022308 119.07159001 -258.30615302 120.70839329 -259.328125 122.34765625 C-259.85083984 123.18570801 -260.37355469 124.02375977 -260.91210938 124.88720703 C-275.30342822 148.35832403 -286.43547893 176.18961419 -290.05859375 203.58203125 C-290.4375 206.375 -290.4375 206.375 -291.4375 207.375 C-294.86452911 207.73669731 -298.30646298 207.74649698 -301.75 207.8125 C-302.71357422 207.85826172 -303.67714844 207.90402344 -304.66992188 207.95117188 C-307.38031654 207.9943729 -309.78586029 207.94217441 -312.4375 207.375 C-316.10526688 203.68002417 -317.0064053 200.49923797 -317 195.375 C-315.52884567 150.29123813 -284.44970077 106.09372831 -255.9375 73.2734375 C-253.59953709 70.56286175 -251.35686138 67.79803209 -249.125 65 C-230.33143073 41.96272154 -207.83072318 24.62100837 -182.4375 9.375 C-181.43952393 8.77461914 -181.43952393 8.77461914 -180.42138672 8.16210938 C-158.63077416 -4.81388816 -136.54276308 -14.60010812 -111.4375 -18.625 C-110.29539062 -18.83125 -109.15328125 -19.0375 -107.9765625 -19.25 C-70.49898212 -25.31378829 -33.35724187 -17.18514595 0 0 Z " fill="#F89FA2" transform="translate(710.4375,215.625)"/>
<path d="M0 0 C1.89453125 0.734375 1.89453125 0.734375 4.89453125 2.359375 C5.89453125 5.359375 5.89453125 5.359375 4.85546875 7.77734375 C4.33210938 8.69128906 3.80875 9.60523438 3.26953125 10.546875 C2.76164062 11.44792969 2.25375 12.34898437 1.73046875 13.27734375 C1.12460937 14.29441406 0.51875 15.31148437 -0.10546875 16.359375 C-0.65690552 17.29595947 -0.65690552 17.29595947 -1.21948242 18.25146484 C-4.14351457 23.09613306 -7.42430357 27.37321188 -11.16796875 31.609375 C-11.73306152 32.25342285 -12.2981543 32.8974707 -12.88037109 33.56103516 C-21.58709485 43.38854643 -30.78148238 52.22035929 -41.10546875 60.359375 C-42.23714477 61.2794477 -43.36727646 62.20142222 -44.49609375 63.125 C-57.41310775 73.65268929 -71.01364172 83.19725126 -84.64233398 92.77172852 C-90.81060069 97.11957139 -96.88384153 101.59073824 -102.95117188 106.07788086 C-111.28676732 112.2407028 -119.67081435 118.3328261 -128.10546875 124.359375 C-128.86875488 124.90529297 -129.63204102 125.45121094 -130.41845703 126.01367188 C-147.70478551 138.34101409 -165.4658337 149.9645363 -183.41796875 161.296875 C-184.34947754 161.88903809 -184.34947754 161.88903809 -185.29980469 162.49316406 C-196.75178991 169.64338834 -210.88303914 169.99125082 -223.96875 167.67578125 C-227.42981557 166.73114161 -230.74834958 165.62327854 -234.10546875 164.359375 C-235.14960938 163.98167969 -236.19375 163.60398437 -237.26953125 163.21484375 C-248.10080984 158.93661796 -258.03784259 152.89287383 -268.09863281 147.08398438 C-270.9824852 145.42991379 -273.87962946 143.80313829 -276.78515625 142.1875 C-304.92428555 126.52453243 -331.98514344 109.18920625 -358.10546875 90.359375 C-358.86569336 89.81313477 -359.62591797 89.26689453 -360.40917969 88.70410156 C-372.0110096 80.34487105 -383.18652213 71.59077418 -394.10546875 62.359375 C-394.7279248 61.83601562 -395.35038086 61.31265625 -395.99169922 60.7734375 C-403.98551947 54.0453944 -411.81504616 47.15822502 -419.39208984 39.96289062 C-421.24664264 38.2272533 -423.13825066 36.53731577 -425.03125 34.84375 C-434.62952869 26.04314518 -434.62952869 26.04314518 -435.984375 21.25 C-435.98088436 18.77862729 -435.79270121 16.72650903 -435.10546875 14.359375 C-406.56190987 6.95919307 -406.56190987 6.95919307 -397.3828125 12.28515625 C-394.31122408 14.32322408 -391.47883549 16.60272696 -388.68554688 19.00439453 C-387.23910932 20.24477284 -385.74452201 21.42842469 -384.24609375 22.60546875 C-379.2692542 26.52508949 -374.59918709 30.71982802 -369.98046875 35.046875 C-362.33892667 42.20478972 -354.2359048 48.76915414 -346.10546875 55.359375 C-344.67543367 56.52431304 -343.24574207 57.68967286 -341.81640625 58.85546875 C-336.20621279 63.42724642 -330.58704287 67.98569038 -324.91796875 72.484375 C-321.23676507 75.41955402 -317.62981437 78.43520249 -314.04296875 81.484375 C-311.73179359 83.44427633 -309.41894711 85.40219313 -307.10546875 87.359375 C-306.45658691 87.90932129 -305.80770508 88.45926758 -305.13916016 89.02587891 C-280.03442639 110.23515386 -255.14175114 123.91570619 -223.22363281 132.15454102 C-221.20702388 132.67796021 -219.19551347 133.21863698 -217.18359375 133.75976562 C-199.31657449 138.46388224 -187.76287038 134.52023311 -172.18798828 125.60205078 C-166.55084956 122.23827164 -161.32975244 118.32280547 -156.10546875 114.359375 C-152.96109513 111.98243695 -149.81516234 109.607578 -146.66796875 107.234375 C-145.82919189 106.60080078 -144.99041504 105.96722656 -144.1262207 105.31445312 C-136.73037968 99.75907418 -129.16529128 94.47046475 -121.55541992 89.21386719 C-108.14067415 79.94479621 -94.93045345 70.43117005 -82.10546875 60.359375 C-81.25984375 59.69679688 -80.41421875 59.03421875 -79.54296875 58.3515625 C-72.59353147 52.84992465 -65.82519248 47.13777218 -59.10546875 41.359375 C-58.30753906 40.67617188 -57.50960938 39.99296875 -56.6875 39.2890625 C-52.52370585 35.6340969 -48.6030646 31.86284668 -44.765625 27.8671875 C-43.97953857 27.05644775 -43.19345215 26.24570801 -42.38354492 25.41040039 C-40.80871219 23.77956934 -39.24707605 22.13586712 -37.70043945 20.47827148 C-32.87995191 15.49613252 -29.8438537 13.70852647 -23.10546875 12.359375 C-21.69457812 10.52226354 -21.69457812 10.52226354 -21.10546875 8.359375 C-19.24839255 5.89211661 -17.19880987 3.62761668 -15.10546875 1.359375 C-14.50734375 0.699375 -13.90921875 0.039375 -13.29296875 -0.640625 C-9.01667112 -2.59550392 -4.35950068 -1.3264529 0 0 Z " fill="#ED4D67" transform="translate(675.10546875,661.640625)"/>
<path d="M0 0 C2.59380515 -0.01159626 5.18758507 -0.03216609 7.78125 -0.06152344 C11.56990421 -0.10424813 15.35786326 -0.12036534 19.14672852 -0.13061523 C20.29486526 -0.14812332 21.44300201 -0.16563141 22.62593079 -0.18367004 C31.15301105 -0.16082547 38.139116 1.28833781 45.00219727 6.54516602 C51.49153248 15.19761297 51.24630586 25.5395124 51.25219727 35.92016602 C51.26444336 37.03262695 51.27668945 38.14508789 51.28930664 39.29125977 C51.30853043 50.30008274 50.44894146 60.23245789 44.93969727 69.92016602 C44.54008789 70.64526367 44.14047852 71.37036133 43.72875977 72.11743164 C40.39896367 78.01306745 36.64449477 83.29577693 32.06469727 88.29516602 C31.4137207 89.03766602 30.76274414 89.78016602 30.09204102 90.54516602 C15.47330146 106.28422019 -7.39561973 118.37650573 -28.94329834 119.38957214 C-31.03240795 119.42616747 -33.1193189 119.4337176 -35.20874023 119.42797852 C-35.99447922 119.42929779 -36.7802182 119.43061707 -37.58976746 119.43197632 C-40.16331915 119.4338926 -42.73676201 119.42753674 -45.31030273 119.42016602 C-46.19338104 119.41927979 -47.07645935 119.41839355 -47.98629761 119.41748047 C-68.64330642 119.39339633 -89.28784608 118.88657637 -109.93530273 118.29516602 C-109.66975586 117.73829102 -109.40420898 117.18141602 -109.13061523 116.60766602 C-107.42601707 112.9247386 -105.99978521 109.59065852 -105.13061523 105.60766602 C-103.79876891 99.72316854 -100.61888544 94.53892208 -97.82946777 89.2409668 C-88.45861935 71.35004287 -81.66988186 53.19586846 -77.93530273 33.29516602 C-75.81039188 23.43462462 -73.76968354 15.10672489 -65.93530273 8.29516602 C-45.27574961 -0.93722089 -22.12274158 0.06885691 0 0 Z " fill="#EA2747" transform="translate(815.935302734375,483.704833984375)"/>
<path d="M0 0 C5.28 0 10.56 0 16 0 C16.33 2.97 16.66 5.94 17 9 C24.79814256 12.01344152 32.10232104 14.27842479 40.4375 15 C47.34961192 15.59876845 53.92386514 16.77725674 60.6875 18.3125 C108.75642778 28.88782213 161.11677948 31.50605369 210 26 C210.95148926 25.89816406 211.90297852 25.79632812 212.88330078 25.69140625 C231.3333772 23.67968666 249.57014499 20.44711496 267.3125 14.9375 C270.53847656 13.94747674 273.76694707 12.96667635 277 12 C277.84530273 11.74669922 278.69060547 11.49339844 279.56152344 11.23242188 C293.69281481 7.14613679 293.69281481 7.14613679 299.08203125 9.140625 C301.50846783 10.94379274 303.20815801 12.57135143 305 15 C305.56332031 15.75796875 306.12664062 16.5159375 306.70703125 17.296875 C308.38065857 20.79581791 308.2956842 23.45393025 308.1875 27.3125 C308.16042969 28.56675781 308.13335937 29.82101562 308.10546875 31.11328125 C308.05326172 32.54220703 308.05326172 32.54220703 308 34 C238.53423046 66.69597141 137.3992074 96.79524875 61.95019531 70.27612305 C56.1550204 68.13526862 50.51799086 65.78491888 45 63 C44.02716064 62.52240234 44.02716064 62.52240234 43.03466797 62.03515625 C23.71021849 52.51030911 10.4664842 39.10724305 2 19 C-0.28139457 12.08893503 -1.20798082 7.24788492 0 0 Z " fill="#F77C93" transform="translate(36,522)"/>
<path d="M0 0 C0.33 0.66 0.66 1.32 1 2 C2.32 2 3.64 2 5 2 C5.76749866 13.40283731 6.12696844 24.80020073 6.17724609 36.2277832 C6.18397246 37.59531812 6.19410964 38.96284143 6.20800781 40.33032227 C6.33343893 53.74319942 5.35087577 66.72016923 0.875 79.4375 C0.41649658 80.76998779 0.41649658 80.76998779 -0.05126953 82.12939453 C-3.01169249 90.4740399 -6.70046003 98.27171296 -11 106 C-11.50587646 106.93054199 -11.50587646 106.93054199 -12.02197266 107.87988281 C-26.88479893 135.00965494 -50.31120252 156.89671268 -75 175 C-75.76940918 175.5671875 -76.53881836 176.134375 -77.33154297 176.71875 C-83.61476308 181.24457515 -90.16479124 184.99921668 -97 188.625 C-98.52367187 189.44484375 -98.52367187 189.44484375 -100.078125 190.28125 C-103.0437885 191.87054146 -106.01849964 193.44064423 -109 195 C-109.88292725 195.46301514 -110.76585449 195.92603027 -111.67553711 196.40307617 C-147.33286556 214.71341087 -193.95312644 214.51237022 -231.74609375 203.28125 C-235 202 -235 202 -237 199 C-237.25760279 196.30547479 -237.08900053 193.71451625 -237 191 C-230.15721233 188.65797446 -223.16634999 188.10202101 -216 187.375 C-214.75476563 187.2409375 -213.50953125 187.106875 -212.2265625 186.96875 C-206.44749102 186.36496641 -200.81643744 185.93106308 -195 186 C-195 184.35 -195 182.7 -195 181 C-197.31 181 -199.62 181 -202 181 C-199.27980869 179.53589928 -196.80560749 178.60517256 -193.7890625 177.95703125 C-192.96784912 177.77422607 -192.14663574 177.5914209 -191.30053711 177.40307617 C-190.41760986 177.20818604 -189.53468262 177.0132959 -188.625 176.8125 C-150.37120286 167.99033243 -113.43370654 152.11062931 -83 127 C-82.43474609 126.53625977 -81.86949219 126.07251953 -81.28710938 125.59472656 C-62.47631502 110.07115481 -46.78960756 93.1870612 -35.8125 71.1875 C-34.97428711 69.51071167 -34.97428711 69.51071167 -34.11914062 67.80004883 C-27.93144084 55.17500396 -22.94294307 42.15568222 -18 29 C-17.08670255 26.57815385 -16.17011756 24.15754451 -15.25 21.73828125 C-14.63898438 20.12433472 -14.63898438 20.12433472 -14.015625 18.4777832 C-13 16 -13 16 -12 15 C-7.99779347 14.85644883 -4.00558317 14.95783597 0 15 C0 10.05 0 5.1 0 0 Z " fill="#F58949" transform="translate(702,462)"/>
<path d="M0 0 C1.16901855 0.144375 2.33803711 0.28875 3.54248047 0.4375 C15.46680099 1.77606131 27.27363746 2.17322108 39.2578125 2.125 C40.01864891 2.12211975 40.77948532 2.1192395 41.56337738 2.11627197 C47.08404352 2.0917638 52.60449287 2.04771519 58.125 2 C63.68771835 1.95230793 69.25032159 1.91179879 74.81319809 1.88812256 C77.002189 1.87539606 79.19079862 1.85042188 81.37966919 1.82470703 C93.11891011 1.73714261 103.45270716 2.69131795 114 8 C126.05731557 13.9433539 138.46635215 18.86981519 150.98730469 23.7434082 C154.36365987 25.05808441 157.73670637 26.38097705 161.109375 27.70507812 C185.9803995 37.44203877 207.98907729 45.49110769 235 45 C234.34 46.32 233.68 47.64 233 49 C234.32 49.99 235.64 50.98 237 52 C235.93265625 52.76441406 234.8653125 53.52882813 233.765625 54.31640625 C232.26004836 55.39792496 230.7548737 56.4800034 229.25 57.5625 C228.44667236 58.1402417 227.64334473 58.7179834 226.81567383 59.31323242 C221.57131108 63.1004061 216.38943687 66.95968851 211.23999023 70.87475586 C175.84609302 97.74432661 175.84609302 97.74432661 157 96 C152.00495199 95.03167016 147.09913384 93.75727065 142.1875 92.4375 C141.50192017 92.25604431 140.81634033 92.07458862 140.10998535 91.88763428 C114.21173595 85.02077698 91.99366629 75.93171896 71 59 C69.54207031 57.84177734 69.54207031 57.84177734 68.0546875 56.66015625 C63.61523606 53.08141479 59.28128747 49.38707047 54.96606445 45.66064453 C49.24173943 40.71815937 43.44171627 35.92833067 37.46826172 31.29003906 C30.50966025 25.8724227 23.73818781 20.22945691 16.94628906 14.60546875 C15.17636148 13.14547831 13.39955601 11.69475812 11.6171875 10.25 C10.65039062 9.46625 9.68359375 8.6825 8.6875 7.875 C7.86636719 7.21242188 7.04523438 6.54984375 6.19921875 5.8671875 C4.01246892 4.0105864 2.01609217 2.03855485 0 0 Z " fill="#EE2C4E" transform="translate(312,703)"/>
<path d="M0 0 C1.30195313 0.18175781 2.60390625 0.36351562 3.9453125 0.55078125 C24.22176466 3.94558588 43.88794894 12.52688307 62 22 C62.73911621 22.37624512 63.47823242 22.75249023 64.23974609 23.14013672 C72.84180703 27.57126431 80.6109477 32.35873053 84 42 C83.86139563 45.09087737 83.45329816 46.48810476 81.3984375 48.80859375 C80.39683594 49.61490234 80.39683594 49.61490234 79.375 50.4375 C78.66085937 51.0253125 77.94671875 51.613125 77.2109375 52.21875 C76.48132813 52.8065625 75.75171875 53.394375 75 54 C73.66307657 55.14164248 72.32942796 56.28713784 71 57.4375 C69.515 58.7059375 69.515 58.7059375 68 60 C68 57.36 68 54.72 68 52 C67.15695312 51.99613281 67.15695312 51.99613281 66.296875 51.9921875 C53.49662077 51.40321875 40.8799014 46.74388484 29.125 41.875 C19.28209271 37.80645705 9.16949159 35.19682781 -1.1875 32.8125 C-1.89946533 32.64540527 -2.61143066 32.47831055 -3.3449707 32.30615234 C-13.4327281 30.06647876 -23.71147159 29.81408641 -34.0078125 29.578125 C-35.21388153 29.55022888 -36.41995056 29.52233276 -37.66256714 29.49359131 C-40.19540403 29.43755156 -42.72829469 29.38389557 -45.26123047 29.33251953 C-47.84081852 29.2774266 -50.42026449 29.21523109 -52.99951172 29.14599609 C-56.75210344 29.04532262 -60.50463037 28.96564533 -64.2578125 28.890625 C-65.40178497 28.85640442 -66.54575745 28.82218384 -67.72439575 28.78692627 C-76.9024615 28.64295327 -83.65716466 30.66879154 -91.83984375 34.69921875 C-92.83951172 35.18583984 -93.83917969 35.67246094 -94.86914062 36.17382812 C-95.88169922 36.67333984 -96.89425781 37.17285156 -97.9375 37.6875 C-99.98657363 38.6948871 -102.03727376 39.69897482 -104.08984375 40.69921875 C-104.98566162 41.14096436 -105.88147949 41.58270996 -106.80444336 42.0378418 C-109 43 -109 43 -111 43 C-110.87238281 43.88300781 -110.74476563 44.76601563 -110.61328125 45.67578125 C-111 49 -111 49 -113.60546875 51.60546875 C-114.78635788 52.48406239 -115.9814684 53.34375022 -117.1875 54.1875 C-118.4794809 55.14626326 -119.76980801 56.10725852 -121.05859375 57.0703125 C-121.71714355 57.55532227 -122.37569336 58.04033203 -123.05419922 58.54003906 C-142.31717844 72.99331582 -157.80167096 90.62319423 -168.92602539 112.00634766 C-170 114 -170 114 -172.01464844 117.02197266 C-174.746676 121.81052582 -175.10022588 126.82931175 -175.66796875 132.234375 C-175.79311356 133.3081842 -175.91825836 134.38199341 -176.04719543 135.48834229 C-176.441995 138.90740487 -176.81491123 142.32845342 -177.1875 145.75 C-177.44846093 148.03401558 -177.7108173 150.31787217 -177.97460938 152.6015625 C-179.00791668 161.63122721 -180.00995861 170.65345602 -180.72822571 179.7144165 C-181 182 -181 182 -182 185 C-190.58 185 -199.16 185 -208 185 C-208.09250556 178.70448242 -208.17193805 172.41138181 -208.21972656 166.11572266 C-208.23967547 163.98022411 -208.26684458 161.84477898 -208.30175781 159.70947266 C-208.56676665 143.06847662 -207.32316964 129.80432633 -199 115 C-198.34 115 -197.68 115 -197 115 C-196.77183594 114.20464844 -196.54367188 113.40929687 -196.30859375 112.58984375 C-191.17839429 98.51625179 -182.25066614 85.66722369 -173 74 C-172.20464844 72.99324219 -171.40929687 71.98648438 -170.58984375 70.94921875 C-168.42775647 68.26793384 -166.22998798 65.6249674 -164 63 C-163.32195312 62.19820313 -162.64390625 61.39640625 -161.9453125 60.5703125 C-158.22776343 56.27415657 -154.37633987 52.38646512 -150.03125 48.7265625 C-148.6905946 47.58700541 -147.3767368 46.41505216 -146.09375 45.2109375 C-128.48434074 28.75291269 -106.6155611 17.22391195 -85 7 C-84.28779297 6.66274902 -83.57558594 6.32549805 -82.84179688 5.97802734 C-72.82176567 1.33661649 -62.86435383 -0.65841785 -52 -2 C-51.26112549 -2.0942627 -50.52225098 -2.18852539 -49.76098633 -2.28564453 C-33.00437285 -4.30503591 -16.6107446 -2.49253144 0 0 Z " fill="#F6B8B3" transform="translate(322,258)"/>
<path d="M0 0 C3.94028185 2.10174654 7.94471382 4.07038628 11.95166016 6.04101562 C11.95166016 9.34101562 11.95166016 12.64101563 11.95166016 16.04101562 C5.97928743 18.08843313 0.0059398 20.13297372 -5.96826172 22.17504883 C-7.99326043 22.86765104 -10.01800768 23.56098898 -12.04248047 24.25512695 C-45.44810599 35.70730303 -45.44810599 35.70730303 -59.17333984 38.72851562 C-60.03314453 38.92767578 -60.89294922 39.12683594 -61.77880859 39.33203125 C-74.15051006 42.11065345 -86.36914902 43.45687331 -99.04833984 43.47851562 C-99.71488586 43.47991547 -100.38143188 43.48131531 -101.06817627 43.48275757 C-123.06726236 43.4450778 -139.64970414 38.52738827 -157.04833984 25.04101562 C-158.01255859 24.31527344 -158.97677734 23.58953125 -159.97021484 22.84179688 C-166.72623562 17.3740004 -166.72623562 17.3740004 -167.66943359 13.47070312 C-167.67333984 10.97851562 -167.67333984 10.97851562 -167.04833984 7.04101562 C-166.02095703 6.533125 -164.99357422 6.02523437 -163.93505859 5.50195312 C-162.5352633 4.80675278 -161.13552694 4.11143378 -159.73583984 3.41601562 C-159.06488281 3.08472656 -158.39392578 2.7534375 -157.70263672 2.41210938 C-153.65706946 0.39882238 -149.69455163 -1.71287438 -145.75537109 -3.92773438 C-140.02943545 -7.06883609 -134.13569252 -9.48883319 -128.04833984 -11.83398438 C-125.84452882 -12.69551282 -123.64140973 -13.5588132 -121.43896484 -14.42382812 C-120.359375 -14.84776855 -119.27978516 -15.27170898 -118.16748047 -15.70849609 C-114.47278812 -17.18972764 -110.8254452 -18.7645014 -107.17895508 -20.35986328 C-67.96372434 -37.43584213 -35.0713973 -18.89401166 0 0 Z " fill="#F28545" transform="translate(436.04833984375,602.958984375)"/>
<path d="M0 0 C0.33 0 0.66 0 1 0 C1 6.93 1 13.86 1 21 C3.31 20.34 5.62 19.68 8 19 C11.4375 18.875 11.4375 18.875 14 19 C14 17.02 14 15.04 14 13 C21.00867054 14.77183769 27.88952466 16.89213891 34.76953125 19.1015625 C36.58391627 19.6799012 38.39837081 20.25802185 40.21289062 20.8359375 C43.01248029 21.72792882 45.81025633 22.6242684 48.60375977 23.53515625 C59.47894063 27.07373081 69.45774929 30.02674913 81 30 C81.08564209 29.43490723 81.17128418 28.86981445 81.25952148 28.28759766 C81.64869818 25.73285367 82.04303485 23.17893253 82.4375 20.625 C82.63956055 19.29082031 82.63956055 19.29082031 82.84570312 17.9296875 C83.04389648 16.65351562 83.04389648 16.65351562 83.24609375 15.3515625 C83.36654053 14.56604004 83.4869873 13.78051758 83.61108398 12.97119141 C84 11 84 11 85 9 C93.50357783 9.39393571 101.94316461 10.07630918 110.40600586 10.99121094 C158.78758065 16.15769661 207.39593286 16.95808497 256 18 C256 14.7 256 11.4 256 8 C262.54098202 9.95841655 267.9815957 12.43397737 273.75 16.0625 C274.52206787 16.54130615 275.29413574 17.0201123 276.08959961 17.51342773 C294.58180704 29.16361408 294.58180704 29.16361408 297 34 C295.86304688 34.24234375 294.72609375 34.4846875 293.5546875 34.734375 C285.10832658 36.55862713 276.78553236 38.55405802 268.4921875 40.99609375 C264.67781499 42.09261918 260.84915613 43.09671512 257 44.0625 C255.80375 44.36285156 254.6075 44.66320312 253.375 44.97265625 C251.91758547 45.31899361 250.45910661 45.660862 249 46 C247.99702881 46.23557617 246.99405762 46.47115234 245.96069336 46.71386719 C237.56407587 48.60777821 229.20782966 49.89093069 220.66870117 50.88037109 C218.56651371 51.12453382 216.4659036 51.37985341 214.36523438 51.63671875 C199.12509079 53.47011697 183.96727075 54.20632557 168.625 54.1875 C167.78394714 54.18722809 166.94289429 54.18695618 166.07635498 54.18667603 C129.10151878 54.13231022 91.09702165 51.71122828 55.15234375 42.640625 C51.15945982 41.8291839 47.17894768 41.49157587 43.125 41.125 C23.28344369 39.28344369 23.28344369 39.28344369 18 34 C17.85806663 30.99668982 17.95763622 28.00782866 18 25 C12.72 25 7.44 25 2 25 C1.67 26.32 1.34 27.64 1 29 C-1.81091265 20.56726204 -2.50816726 8.57952451 0 0 Z " fill="#FBBCBF" transform="translate(34,497)"/>
<path d="M0 0 C3.88811932 2.95415998 7.69739886 6.00529813 11.5078125 9.05859375 C12.60996094 9.93257812 12.60996094 9.93257812 13.734375 10.82421875 C14.42660156 11.37335938 15.11882812 11.9225 15.83203125 12.48828125 C19.3747406 15.05264377 23.19017048 17.15921393 27.01953125 19.265625 C27.70917969 19.88308594 28.39882813 20.50054688 29.109375 21.13671875 C29.23999023 24.25366211 29.23999023 24.25366211 29.109375 27.13671875 C23.77095719 27.28513499 18.43374158 27.39396405 13.09375 27.46630859 C11.27778201 27.49646663 9.46195951 27.53740073 7.64648438 27.58935547 C5.03479145 27.66221999 2.42502442 27.69618242 -0.1875 27.72265625 C-0.99805847 27.75362396 -1.80861694 27.78459167 -2.64373779 27.8164978 C-4.88322852 27.81783235 -6.73956812 27.76437954 -8.890625 27.13671875 C-11.29370117 24.16625977 -11.29370117 24.16625977 -12.890625 21.13671875 C-15.08791599 19.97958349 -15.08791599 19.97958349 -17.453125 19.69921875 C-18.21753906 19.55613281 -18.98195313 19.41304687 -19.76953125 19.265625 C-22.08070753 18.99274959 -22.08070753 18.99274959 -24.890625 20.13671875 C-34.35149007 17.50949825 -43.25468618 12.65737513 -51.93359375 8.14990234 C-53.72512502 7.2224005 -55.5261845 6.31336323 -57.328125 5.40625 C-72.56659503 -2.43809878 -86.95502722 -11.86040507 -101.4453125 -20.98828125 C-117.06273235 -32.79365472 -117.06273235 -32.79365472 -134.47265625 -38.64453125 C-136.83897725 -37.99287288 -136.83897725 -37.99287288 -138.51147461 -36.82666016 C-142.0670705 -35.38690835 -145.59998116 -35.61856003 -149.375 -35.66796875 C-150.19059387 -35.67079865 -151.00618774 -35.67362854 -151.84649658 -35.67654419 C-154.44469028 -35.68771567 -157.04253595 -35.7128145 -159.640625 -35.73828125 C-161.40494293 -35.74831498 -163.16926628 -35.75744014 -164.93359375 -35.765625 C-169.25273773 -35.78764506 -173.57162241 -35.82215392 -177.890625 -35.86328125 C-178.220625 -37.51328125 -178.550625 -39.16328125 -178.890625 -40.86328125 C-190.58607735 -45.31869167 -203.83228086 -42.54554225 -215.890625 -40.86328125 C-218.88886861 -40.50940295 -221.88872867 -40.184913 -224.890625 -39.86328125 C-220.71459943 -44.82988265 -216.39614323 -49.56817023 -211.828125 -54.17578125 C-211.22935547 -54.79517578 -210.63058594 -55.41457031 -210.01367188 -56.05273438 C-206.79142861 -59.30321197 -204.31840815 -61.44056096 -199.890625 -62.86328125 C-196.43108518 -64.6157841 -192.99384754 -66.40743104 -189.55859375 -68.20703125 C-136.54478291 -93.38328294 -40.82190493 -30.42326511 0 0 Z " fill="#F89397" transform="translate(518.890625,512.86328125)"/>
<path d="M0 0 C1.375 2.7265625 1.375 2.7265625 2 5 C1.01 4.67 0.02 4.34 -1 4 C-1.19018688 11.47672156 -0.81792348 16.67500501 4.0625 22.5625 C8.0445273 27.48482713 8.88239392 30.61749006 8.38671875 36.890625 C8.25910156 37.91671875 8.13148438 38.9428125 8 40 C7.88591797 41.63195312 7.88591797 41.63195312 7.76953125 43.296875 C6.99706374 51.03972576 4.91889306 57.65855992 -1 63 C-8.71426572 67.07053418 -18.54210673 68.06185509 -27 66 C-31.71387947 63.08454374 -34.72114588 59.42402227 -38 55 C-38.75152344 54.01644531 -39.50304687 53.03289062 -40.27734375 52.01953125 C-41.76352556 50.0423087 -43.23487271 48.05385119 -44.69140625 46.0546875 C-51.34371187 37.25248277 -58.57654867 29.87207602 -68 24 C-69.485 23.01 -69.485 23.01 -71 22 C-86.26073715 19.98443094 -100.14557436 26.70527399 -112.03125 35.65771484 C-115.68236894 38.47893617 -119.25616564 41.39178185 -122.828125 44.3125 C-124.11976563 45.364375 -124.11976563 45.364375 -125.4375 46.4375 C-126.54931641 47.36369141 -126.54931641 47.36369141 -127.68359375 48.30859375 C-132.95222246 52.15567003 -137.02415126 53.43090227 -143.5625 53.4375 C-144.84253906 53.45683594 -146.12257813 53.47617187 -147.44140625 53.49609375 C-151.60415956 52.91577578 -153.09854831 51.99227974 -156 49 C-157.8359375 46.34375 -157.8359375 46.34375 -159.375 43.5 C-159.89835938 42.5615625 -160.42171875 41.623125 -160.9609375 40.65625 C-162.1253463 37.67956586 -162.05474688 36.91858076 -161 34 C-159.08864837 31.8746911 -157.18611995 29.90449387 -155.125 27.9375 C-154.58230469 27.40833984 -154.03960938 26.87917969 -153.48046875 26.33398438 C-152.46580656 25.34537097 -151.44808219 24.35988315 -150.42626953 23.37866211 C-149.44663222 22.43172409 -148.48759666 21.46314731 -147.546875 20.47753906 C-116.96068001 -8.73768381 -36.31398333 -26.47894618 0 0 Z " fill="#F8D480" transform="translate(678,427)"/>
<path d="M0 0 C3.89789926 1.34529267 6.04096836 3.18809715 8.125 6.8125 C8.125 7.4725 8.125 8.1325 8.125 8.8125 C20.665 8.8125 33.205 8.8125 46.125 8.8125 C46.125 6.8325 46.125 4.8525 46.125 2.8125 C49.09954398 3.13407232 50.67668558 3.33308242 52.7578125 5.55859375 C55.1409864 9.48742614 54.9651617 13.37754807 54.125 17.8125 C52.91809231 19.88393022 51.57839871 21.35913826 49.8828125 23.05078125 C48.00474728 24.93301995 46.50826924 26.91881735 44.9375 29.0625 C32.40805802 45.26246133 12.48645539 62.96295678 -8.46875 66.40234375 C-9.7578125 66.51707031 -11.046875 66.63179687 -12.375 66.75 C-13.6434375 66.88277344 -14.911875 67.01554688 -16.21875 67.15234375 C-27.88969327 67.05445757 -39.35852079 59.77500403 -49.3125 54.3125 C-50.61554266 53.6051498 -51.91885095 52.89828874 -53.22241211 52.19189453 C-56.48914307 50.41754382 -59.74796612 48.62914413 -63.00524902 46.83752441 C-64.80399011 45.85142865 -66.60655889 44.87283447 -68.41113281 43.89746094 C-71.59429276 42.17444906 -74.76748525 40.43455327 -77.9375 38.6875 C-79.3450354 37.92663086 -79.3450354 37.92663086 -80.78100586 37.15039062 C-86.01253398 34.22396056 -89.21946512 31.52807576 -92.875 26.8125 C-95.54428573 24.73489833 -95.54428573 24.73489833 -98.375 23.0625 C-99.2928125 22.49015625 -100.210625 21.9178125 -101.15625 21.328125 C-104.17726803 19.56814449 -104.17726803 19.56814449 -108.875 17.8125 C-107.225 14.5125 -105.575 11.2125 -103.875 7.8125 C-98.60138245 8.12891705 -94.31902865 9.30379114 -89.375 11.1875 C-76.46069054 15.87250186 -64.79420719 17.0865916 -51.125 17.1875 C-49.29569946 17.20840698 -49.29569946 17.20840698 -47.42944336 17.22973633 C-32.20757077 17.15027838 -21.1676809 13.44293103 -9.8125 3.3125 C-6.36983038 0.4770414 -4.47877142 -0.79899523 0 0 Z " fill="#E42244" transform="translate(501.875,531.1875)"/>
<path d="M0 0 C1.8438327 -0.00786278 1.8438327 -0.00786278 3.72491455 -0.0158844 C6.30309295 -0.02226441 8.88130061 -0.02102029 11.45947266 -0.01245117 C15.39407962 -0.00389874 19.3272531 -0.03283032 23.26171875 -0.06445312 C25.7786454 -0.06606441 28.29557461 -0.065489 30.8125 -0.0625 C32.56430573 -0.07935097 32.56430573 -0.07935097 34.35150146 -0.09654236 C42.83597901 -0.02430681 47.73337806 1.58455952 54.640625 6.62109375 C57.52650961 10.67936898 57.41238154 13.606475 56.640625 18.43359375 C52.94512467 34.75900991 42.06149425 43.84215501 28.390625 52.55859375 C21.37448091 56.74161552 14.12977262 60.19795097 6.640625 63.43359375 C5.75246094 63.82417969 4.86429688 64.21476563 3.94921875 64.6171875 C-9.06736076 69.85233763 -24.61646124 72.52960681 -38.64111328 72.45776367 C-39.52856232 72.45427414 -40.41601135 72.45078461 -41.33035278 72.44718933 C-42.33471878 72.44045952 -42.33471878 72.44045952 -43.359375 72.43359375 C-43.38443115 71.20842041 -43.4094873 69.98324707 -43.43530273 68.72094727 C-43.53002626 64.1417534 -43.63008396 59.56268848 -43.73168945 54.98364258 C-43.77479423 53.0080875 -43.81648462 51.03250099 -43.85668945 49.05688477 C-43.91498965 46.20449384 -43.97850645 43.35225754 -44.04296875 40.5 C-44.05968124 39.62775284 -44.07639374 38.75550568 -44.09361267 37.85682678 C-44.20756795 26.79757002 -44.20756795 26.79757002 -47.421875 16.37109375 C-47.78410156 15.61699219 -48.14632812 14.86289062 -48.51953125 14.0859375 C-48.79667969 13.54066406 -49.07382812 12.99539063 -49.359375 12.43359375 C-42.32713052 8.47998165 -35.25230182 5.94102957 -27.43612671 3.97044373 C-25.89214034 3.57131607 -24.35602678 3.14147857 -22.82485962 2.69569397 C-15.11572535 0.55721555 -7.97645894 -0.02019015 0 0 Z " fill="#F85D71" transform="translate(804.359375,483.56640625)"/>
<path d="M0 0 C4.15401517 2.64955513 7.75523372 5.44218975 11.375 8.8125 C14.58590812 11.78042047 17.80334759 14.71916553 21.125 17.5625 C22.4207037 18.70376629 23.71234499 19.84966032 25 21 C25.67160156 21.59296875 26.34320312 22.1859375 27.03515625 22.796875 C34.28876866 29.58973163 39.79909948 37.64217195 45.43945312 45.76904297 C46.83484078 47.76388846 48.260983 49.73028714 49.703125 51.69140625 C60.72421405 66.9920742 67.27066118 84.87086785 72 103 C72.33684814 104.06081787 72.67369629 105.12163574 73.02075195 106.21459961 C74.05909393 110.22843464 74.44019156 114.04109359 74.60546875 118.16015625 C74.64238327 118.96767838 74.67929779 119.7752005 74.71733093 120.60719299 C75.17195392 131.63229663 75.25958687 142.66678408 75.29516602 153.69995117 C75.30678039 156.20423998 75.32737754 158.70850229 75.35668945 161.21264648 C75.39950396 164.89062777 75.41553994 168.56789391 75.42578125 172.24609375 C75.44328934 173.34948593 75.46079742 174.45287811 75.47883606 175.58970642 C75.45192418 185.33064965 73.23283717 193.7371914 68 202 C65.60926555 198.17482487 65.44033448 194.40334476 65 190 C63.88625 190.639375 62.7725 191.27875 61.625 191.9375 C59.76502913 193.00526106 57.91857063 194.04071468 56 195 C50.89583333 192.58223684 50.89583333 192.58223684 49 191 C48.08047053 188.18883935 47.88882235 185.66344776 47.93408203 182.7199707 C47.94369461 181.87912933 47.95330719 181.03828796 47.96321106 180.17196655 C47.97792953 179.2657254 47.99264801 178.35948425 48.0078125 177.42578125 C48.02811223 175.470632 48.04735901 173.51547159 48.06567383 171.56030273 C48.07611725 170.5392746 48.08656067 169.51824646 48.09732056 168.46627808 C48.45859946 127.30239105 44.32029014 79.20425311 15 47 C13.05543553 45.28762233 11.10685334 43.76018151 8.95703125 42.31640625 C8.31121094 41.88199219 7.66539062 41.44757813 7 41 C6.14470703 40.43821045 5.28941406 39.8764209 4.40820312 39.29760742 C2 37 2 37 1.43237305 34.15917969 C1.45855713 33.09086914 1.48474121 32.02255859 1.51171875 30.921875 C1.52783203 29.76171875 1.54394531 28.6015625 1.56054688 27.40625 C1.60244141 26.1996875 1.64433594 24.993125 1.6875 23.75 C1.71005859 22.52796875 1.73261719 21.3059375 1.75585938 20.046875 C1.81478242 17.03001498 1.89700735 14.01562485 2 11 C3.32 11 4.64 11 6 11 C5.566875 10.37351563 5.13375 9.74703125 4.6875 9.1015625 C4.130625 8.28429687 3.57375 7.46703125 3 6.625 C2.443125 5.81289062 1.88625 5.00078125 1.3125 4.1640625 C0 2 0 2 0 0 Z " fill="#F35E71" transform="translate(729,228)"/>
<path d="M0 0 C8.91195064 6.9025888 11.19083279 16.02644308 13.5 26.625 C15.91637153 37.56686043 18.96535462 45.79656035 28.43359375 52.48828125 C40.0155841 59.31054954 54.20396461 62.21678154 67 66 C64.45609741 73.04594074 64.45609741 73.04594074 61.28710938 75.12231445 C59.20631672 75.915682 57.16861809 76.49345107 55 77 C53.88044922 77.27529541 53.88044922 77.27529541 52.73828125 77.55615234 C51.16028641 77.92785339 49.57930405 78.2870568 47.99584961 78.63476562 C40.25698212 80.34862614 33.05575233 82.47815518 25.9375 86 C25.2775 86.3199292 24.6175 86.6398584 23.9375 86.96948242 C18.96478313 89.57477079 16.90122502 92.22666504 15.19140625 97.48828125 C13.23305184 106.28263057 11.75855709 115.13718172 10.35766602 124.03637695 C10.19580811 125.05046631 10.0339502 126.06455566 9.8671875 127.109375 C9.72394043 128.02686523 9.58069336 128.94435547 9.43310547 129.88964844 C9 132 9 132 8 133 C5.66702567 133.04092937 3.33294775 133.04241723 1 133 C-0.85087833 127.73627115 -2.41315442 122.49405271 -3.68481445 117.06225586 C-5.81205177 108.12418354 -8.52847965 100.51208736 -14 93 C-14.48235107 92.22414551 -14.96470215 91.44829102 -15.46166992 90.64892578 C-21.2185925 82.23478064 -28.40176252 79.88041239 -37.6875 77 C-39.10322066 76.53561117 -40.51794709 76.06817995 -41.93164062 75.59765625 C-44.52053873 74.73853149 -47.11275831 73.90145487 -49.71362305 73.078125 C-52.53162657 72.15365404 -55.26349468 71.13980579 -58 70 C-58 67.36 -58 64.72 -58 62 C-57.31486328 61.80889648 -56.62972656 61.61779297 -55.92382812 61.42089844 C-52.78014756 60.53892729 -49.640118 59.6445685 -46.5 58.75 C-45.42234375 58.44964844 -44.3446875 58.14929688 -43.234375 57.83984375 C-42.17734375 57.53691406 -41.1203125 57.23398438 -40.03125 56.921875 C-38.58588867 56.51340332 -38.58588867 56.51340332 -37.11132812 56.09667969 C-26.60340568 52.39285141 -17.16713337 45.76913525 -11.793396 35.75042725 C-9.26346793 30.05966453 -7.47153695 24.14455903 -5.6875 18.1875 C-5.12410167 16.41484855 -4.55706202 14.64335015 -3.98632812 12.87304688 C-2.61536536 8.59411292 -1.29406745 4.30278227 0 0 Z M0 42 C-0.36351563 42.78503906 -0.72703125 43.57007813 -1.1015625 44.37890625 C-6.18814037 55.00854974 -11.05061266 60.68101579 -20.8046875 67.30078125 C-21.52914062 67.86152344 -22.25359375 68.42226562 -23 69 C-23 69.66 -23 70.32 -23 71 C-20.96023786 71.96238036 -18.91809954 72.91972527 -16.875 73.875 C-15.73804688 74.40867188 -14.60109375 74.94234375 -13.4296875 75.4921875 C-10.06595729 77.05058558 -10.06595729 77.05058558 -6.671875 78.01953125 C-4 79 -4 79 -2.375 81.8125 C-1.92125 82.864375 -1.4675 83.91625 -1 85 C0.9445527 87.82865928 0.9445527 87.82865928 3 90 C3.66 90 4.32 90 5 90 C5.3403125 89.21496094 5.680625 88.42992187 6.03125 87.62109375 C11.05320028 76.73574938 16.78827324 71.17844446 28 67 C27.4975005 64.81797516 27.04758069 63.08396593 25.9375 61.125 C23.44034701 59.6750402 22.56120261 60.12775253 19.8125 60.8125 C18.554375 61.204375 17.29625 61.59625 16 62 C15.75894531 61.31292969 15.51789063 60.62585938 15.26953125 59.91796875 C13.76165639 56.45217639 11.81485491 53.41738328 9.6875 50.3125 C9.30916016 49.73177734 8.93082031 49.15105469 8.54101562 48.55273438 C6.09956761 44.97937984 4.20130173 43.1525695 0 42 Z " fill="#FBBD56" transform="translate(102,144)"/>
<path d="M0 0 C2.58496198 3.19253438 4.33217165 6.50197191 6.109375 10.19921875 C6.7053673 11.42140049 7.30173386 12.64339978 7.8984375 13.86523438 C8.82183501 15.76736498 9.74202832 17.67085363 10.65527344 19.57788086 C19.81038658 38.64606303 30.71967656 48.67692122 50 57 C46.90488138 59.54827788 43.82445965 61.83301218 40.375 63.875 C39.51132812 64.38933594 38.64765625 64.90367187 37.7578125 65.43359375 C35.90072342 66.4883993 34.01913523 67.50106507 32.1171875 68.47265625 C31.17101562 68.95605469 30.22484375 69.43945312 29.25 69.9375 C28.38890625 70.35902344 27.5278125 70.78054688 26.640625 71.21484375 C19.5810272 75.9873825 16.47786621 82.59412031 13.375 90.3125 C13.00632812 91.19873047 12.63765625 92.08496094 12.2578125 92.99804688 C9.78145553 98.97530993 7.39278584 104.98887485 5 111 C2.0008665 107.39970389 -0.51353583 103.69544076 -2.9375 99.6875 C-3.64056747 98.53381911 -4.34369233 97.38017318 -5.046875 96.2265625 C-6.18428582 94.34755983 -7.32037965 92.46775639 -8.453125 90.5859375 C-8.86046875 89.91820312 -9.2678125 89.25046875 -9.6875 88.5625 C-10.02136719 88.00691406 -10.35523438 87.45132813 -10.69921875 86.87890625 C-19.03309968 74.84107824 -32.25170999 68.4711237 -45 62 C-45 59.03 -45 56.06 -45 53 C-43.94941406 52.69707031 -42.89882813 52.39414062 -41.81640625 52.08203125 C-29.8617409 48.55288415 -19.34144857 45.31556501 -12.80688477 33.91918945 C-9.24816248 26.95294449 -6.66948902 19.78379916 -4.1875 12.375 C-3.57745117 10.58255859 -3.57745117 10.58255859 -2.95507812 8.75390625 C-1.96367968 5.83802846 -0.97881339 2.92012129 0 0 Z " fill="#F75961" transform="translate(856,661)"/>
<path d="M0 0 C6.81624793 5.61338064 9.92399728 14.04570654 13 22.125 C17.06096938 32.60600811 23.02321409 41.64355668 32.6875 47.5625 C33.29674316 47.945271 33.90598633 48.32804199 34.53369141 48.72241211 C39.52605977 51.81464132 44.66040775 54.55166162 50 57 C44.61840431 61.54072137 39.03307812 65.2392409 32.5 67.875 C21.14868209 72.79846319 15.7619015 82.30446532 11.3125 93.375 C8.25797738 101.7037305 6.00245968 110.17835486 5 119 C2.25741957 115.66402301 0.47064544 112.03838748 -1.328125 108.14453125 C-1.96966788 106.78562584 -2.61160802 105.42690793 -3.25390625 104.06835938 C-4.25001397 101.94900721 -5.24269785 99.82824355 -6.22802734 97.70385742 C-11.15011051 87.11853276 -15.90662848 77.40824665 -25.6875 70.4375 C-26.70714844 69.7053125 -27.72679687 68.973125 -28.77734375 68.21875 C-33.81260867 64.75204639 -38.87572739 61.33441143 -44 58 C-41.67955256 55.19795026 -38.84643377 53.75922937 -35.65625 52.09741211 C-19.92085435 43.84990705 -9.97251072 33.98318728 -4.29736328 16.8828125 C-3.00779778 12.62971677 -1.9647863 8.33881298 -1 4 C-0.67071933 2.66566004 -0.33953481 1.33176762 0 0 Z " fill="#FBC44A" transform="translate(906,203)"/>
<path d="M0 0 C2.475 0.495 2.475 0.495 5 1 C5.22550537 1.9132605 5.22550537 1.9132605 5.45556641 2.8449707 C10.12338295 21.49330353 15.45941895 37.48610183 32.41015625 48.27734375 C35.24070686 49.92709255 38.09956284 51.47837847 41 53 C42 54 42 54 42.09765625 55.84765625 C42.06510417 57.8984375 42.03255208 59.94921875 42 62 C40.76636719 62.58394531 40.76636719 62.58394531 39.5078125 63.1796875 C20.65867072 72.62602414 12.5524688 88.17604368 5 107 C2.37916151 103.72194819 0.4399195 100.24544693 -1.5625 96.5625 C-10.69035972 80.27113868 -23.75161098 66.98974368 -37 54 C-34.0680645 51.66404204 -31.09981361 49.98262135 -27.75 48.3125 C-13.51685133 40.50600545 -7.71899165 27.39820295 -3.30908203 12.3815918 C-2.15393128 8.26745653 -1.04891171 4.14247619 0 0 Z " fill="#FBC64D" transform="translate(248,90)"/>
<path d="M0 0 C0.74056641 0.00451172 1.48113281 0.00902344 2.24414062 0.01367188 C4.05862899 0.02537825 5.87307534 0.04331102 7.6875 0.0625 C7.88085938 0.95453125 8.07421875 1.8465625 8.2734375 2.765625 C8.66402344 4.52132812 8.66402344 4.52132812 9.0625 6.3125 C9.31773437 7.47265625 9.57296875 8.6328125 9.8359375 9.828125 C10.54871245 12.53536198 11.18049581 14.71636848 12.6875 17.0625 C14.35225686 17.40524406 16.01945323 17.73614302 17.6875 18.0625 C22.64947704 20.60375545 27.1754451 23.69903785 30.6875 28.0625 C31.08325161 30.0510904 31.42478059 32.05200513 31.6875 34.0625 C24.01690927 37.8867744 16.38285157 41.38372145 8.1875 43.9375 C7.54232422 44.14012451 6.89714844 44.34274902 6.23242188 44.55151367 C-2.16990496 47.06808442 -10.35198714 47.24886548 -19.05371094 47.24780273 C-21.04366174 47.24997939 -23.03357284 47.26846666 -25.0234375 47.28710938 C-34.84424958 47.30187011 -44.06263177 46.56245014 -53.3125 43.0625 C-52.9825 41.0825 -52.6525 39.1025 -52.3125 37.0625 C-58.2525 35.0825 -64.1925 33.1025 -70.3125 31.0625 C-65.85500703 22.14751407 -58.15868816 19.36431325 -49.30419922 15.85546875 C-46.56603765 14.76530587 -43.84572115 13.63348715 -41.12353516 12.50415039 C-38.98962455 11.62070453 -36.85261487 10.74515184 -34.71484375 9.87109375 C-31.67973177 8.62831175 -28.65230884 7.36865277 -25.62890625 6.09765625 C-24.86425049 5.77788818 -24.09959473 5.45812012 -23.31176758 5.12866211 C-21.85045243 4.51720331 -20.39056317 3.90232154 -18.93237305 3.28344727 C-12.39751814 0.55920235 -7.03710752 -0.08175371 0 0 Z " fill="#F9C06D" transform="translate(353.3125,576.9375)"/>
<path d="M0 0 C3.72922675 3.924219 5.50746573 6.90506085 5.79296875 12.38671875 C4.98297916 24.12420423 -2.62749584 32.56569278 -11.12548828 40.01855469 C-14.67530299 42.93417976 -18.4053877 45.56175459 -22.20703125 48.13671875 C-22.94276367 48.63743896 -23.67849609 49.13815918 -24.43652344 49.65405273 C-33.96358173 55.85344263 -42.0956416 57.06309334 -53.39453125 56.94921875 C-54.56886719 56.96082031 -55.74320313 56.97242188 -56.953125 56.984375 C-58.63728516 56.97857422 -58.63728516 56.97857422 -60.35546875 56.97265625 C-61.3717334 56.96927246 -62.38799805 56.96588867 -63.43505859 56.96240234 C-66.01953125 56.57421875 -66.01953125 56.57421875 -67.81103516 55.23681641 C-71.56789531 50.06828759 -70.57343595 42.59871034 -70.01953125 36.57421875 C-67.45011516 27.44799397 -63.1342616 18.838341 -54.70629883 14.06347656 C-54.04654053 13.71639648 -53.38678223 13.36931641 -52.70703125 13.01171875 C-52.00408936 12.63241211 -51.30114746 12.25310547 -50.5769043 11.86230469 C-39.77359153 6.18306904 -28.66082933 2.55438693 -16.83203125 -0.36328125 C-15.48588745 -0.69924316 -15.48588745 -0.69924316 -14.11254883 -1.04199219 C-4.60764565 -3.25298001 -4.60764565 -3.25298001 0 0 Z " fill="#FCF5F8" transform="translate(276.01953125,299.42578125)"/>
<path d="M0 0 C0 2.97 0 5.94 0 9 C2.64 9 5.28 9 8 9 C7.88146248 10.43804732 7.75462865 11.87541 7.625 13.3125 C7.55539062 14.11300781 7.48578125 14.91351563 7.4140625 15.73828125 C6.80686116 20.52142385 5.86250142 25.25624222 5 30 C-7.21 30 -19.42 30 -32 30 C-32.33 28.35 -32.66 26.7 -33 25 C-44.69545235 20.54458958 -57.94165586 23.317739 -70 25 C-72.99824361 25.3538783 -75.99810367 25.67836825 -79 26 C-74.82397443 21.0333986 -70.50551823 16.29511102 -65.9375 11.6875 C-65.33873047 11.06810547 -64.73996094 10.44871094 -64.12304688 9.81054688 C-60.90080361 6.56006928 -58.42778315 4.42272029 -54 3 C-51.72254733 1.84630833 -49.45219404 0.67853979 -47.1875 -0.5 C-31.60403659 -8.35002898 -15.80570037 -7.90285018 0 0 Z " fill="#FAB3B1" transform="translate(373,447)"/>
<path d="M0 0 C4.16998598 1.53732202 6.29587658 4.56593434 8.875 8 C9.83536045 9.25825314 10.79633017 10.51604142 11.7578125 11.7734375 C12.2724707 12.44987305 12.78712891 13.12630859 13.31738281 13.82324219 C15.13403111 16.17339254 16.99571677 18.48236602 18.8671875 20.7890625 C19.51187988 21.59214844 20.15657227 22.39523437 20.82080078 23.22265625 C22.09398055 24.80808892 23.3760647 26.38641711 24.66748047 27.95703125 C25.24643066 28.68535156 25.82538086 29.41367187 26.421875 30.1640625 C26.94362305 30.80811035 27.46537109 31.4521582 28.00292969 32.11572266 C29 34 29 34 28.90942383 35.98193359 C27.71613313 38.62991774 26.1388876 40.13095576 24.02734375 42.125 C23.21305908 42.9089917 22.39877441 43.6929834 21.55981445 44.50073242 C20.69445068 45.32549072 19.82908691 46.15024902 18.9375 47 C11.89804892 53.8458907 5.78031358 60.35401768 1 69 C-6.7975656 59.49727199 -13.19523089 48.98523113 -19.25 38.3125 C-19.75217041 37.45132568 -20.25434082 36.59015137 -20.77172852 35.70288086 C-21.44933228 34.48290405 -21.44933228 34.48290405 -22.140625 33.23828125 C-22.54829102 32.51680908 -22.95595703 31.79533691 -23.37597656 31.05200195 C-24 29 -24 29 -23.32470703 26.93994141 C-21.93033703 24.89798343 -20.50019037 23.37676927 -18.6640625 21.72265625 C-18.01179687 21.12646484 -17.35953125 20.53027344 -16.6875 19.91601562 C-16.006875 19.30435547 -15.32625 18.69269531 -14.625 18.0625 C-8.50555874 12.53507365 -3.5318868 7.59355661 0 0 Z " fill="#F24F5C" transform="translate(764,749)"/>
<path d="M0 0 C1.45885549 2.91771097 0.50880949 4.63682616 -0.29296875 7.7734375 C-0.74144165 9.58110596 -0.74144165 9.58110596 -1.19897461 11.42529297 C-1.44138382 12.39133453 -1.44138382 12.39133453 -1.68869019 13.37689209 C-5.54339003 28.81785984 -8.04013877 44.19937961 -10 60 C-3.4 60 3.2 60 10 60 C9.38383541 67.9485232 8.01043984 75.65981454 6.41601562 83.46191406 C5.99531981 85.52292853 5.58309552 87.58551371 5.171875 89.6484375 C3.14254769 99.71490463 3.14254769 99.71490463 2 102 C-1.98307623 102.17452809 -5.96464019 102.30074085 -9.95068359 102.38452148 C-11.96401231 102.43656965 -13.97627677 102.5255711 -15.98828125 102.61523438 C-23.52417966 102.7477753 -28.25430055 102.33535114 -33.875 97.10180664 C-35.52067536 94.02723651 -34.92666023 92.31661684 -34 89 C-33.04545084 86.86187824 -32.00450257 84.76122021 -30.90234375 82.6953125 C-30.2617971 81.471824 -29.62218646 80.2478451 -28.98339844 79.0234375 C-28.48157043 78.06969238 -28.48157043 78.06969238 -27.96960449 77.09667969 C-18.57512863 59.14995299 -11.74606866 40.96192753 -8 21 C-4.42901235 4.42901235 -4.42901235 4.42901235 0 0 Z " fill="#DE1C3E" transform="translate(746,496)"/>
<path d="M0 0 C0.99 2.97 1.98 5.94 3 9 C3.99 9 4.98 9 6 9 C5.62508094 10.71304481 5.22388983 12.42034601 4.8125 14.125 C4.48185547 15.55199219 4.48185547 15.55199219 4.14453125 17.0078125 C1.69848856 23.40258621 -2.88174975 27.04509314 -8.5625 30.5625 C-9.17891357 30.945271 -9.79532715 31.32804199 -10.43041992 31.72241211 C-21.84952428 38.6579057 -31.64950352 41.61172996 -45 40 C-48.5078125 38.46875 -48.5078125 38.46875 -51 37 C-50.1713146 15.56848114 -50.1713146 15.56848114 -44.94140625 9.68359375 C-36.75680688 2.17096477 -36.75680688 2.17096477 -31.984375 1.875 C-31.24703125 1.91625 -30.5096875 1.9575 -29.75 2 C-23.71586443 2.14324357 -17.88569919 1.28667394 -11.9296875 0.4375 C-7.88665473 -0.01261896 -4.06174645 -0.07236965 0 0 Z " fill="#FDDFD7" transform="translate(578,265)"/>
<path d="M0 0 C0 4.07354199 -2.05253033 6.28943478 -4.3125 9.5 C-23.2116168 34.73799272 -23.2116168 34.73799272 -32.92578125 62.984375 C-31.55895143 65.96025765 -29.46719052 67.91356755 -27.1875 70.25 C-19.36293029 78.62111349 -16.60934683 85.33428819 -17 97 C-17.56909033 100.18537808 -18.32951422 103.21890107 -19.234375 106.32421875 C-19.89662076 108.63870011 -20.33378099 110.80435776 -20.625 113.1875 C-21 116 -21 116 -22 117 C-25.42702911 117.36169731 -28.86896298 117.37149698 -32.3125 117.4375 C-33.27607422 117.48326172 -34.23964844 117.52902344 -35.23242188 117.57617188 C-37.94281654 117.6193729 -40.34836029 117.56717441 -43 117 C-46.66776688 113.30502417 -47.5689053 110.12423797 -47.5625 105 C-46.31254965 66.69506998 -23.00327301 29.24447111 0 0 Z " fill="#F08A8D" transform="translate(441,306)"/>
<path d="M0 0 C0 0.33 0 0.66 0 1 C-1.05316406 1.21914063 -2.10632813 1.43828125 -3.19140625 1.6640625 C-13.27204053 3.85013919 -22.55141405 6.87397993 -32 11 C-31.72285156 11.54527344 -31.44570313 12.09054687 -31.16015625 12.65234375 C-30.79792969 13.40644531 -30.43570313 14.16054688 -30.0625 14.9375 C-29.70285156 15.66839844 -29.34320312 16.39929688 -28.97265625 17.15234375 C-26.58559244 24.14097636 -26.85909815 31.75798484 -26.90234375 39.06640625 C-26.9037587 39.98590561 -26.90517365 40.90540497 -26.90663147 41.85276794 C-26.91217688 44.75604671 -26.92471883 47.65924501 -26.9375 50.5625 C-26.94252207 52.54492075 -26.94708373 54.52734273 -26.95117188 56.50976562 C-26.96127253 61.33989881 -26.9808581 66.16986058 -27 71 C-35.25 71 -43.5 71 -52 71 C-52 63.31185889 -51.14846643 56.47193788 -49.875 48.9375 C-49.7652887 48.28325043 -49.65557739 47.62900085 -49.5425415 46.95492554 C-47.99885564 37.82304928 -46.17804893 28.78712569 -43.875 19.8125 C-43.63378418 18.85786865 -43.39256836 17.9032373 -43.14404297 16.91967773 C-42.90830566 16.04512939 -42.67256836 15.17058105 -42.4296875 14.26953125 C-42.12393799 13.13414917 -42.12393799 13.13414917 -41.81201172 11.97583008 C-40.87566652 9.69746517 -39.90087954 8.55322096 -38 7 C-35.65972315 6.03348861 -33.40448103 5.19950239 -31 4.4375 C-30.32864014 4.22134033 -29.65728027 4.00518066 -28.96557617 3.7824707 C-19.23456832 0.73217624 -10.20379207 -0.32053797 0 0 Z " fill="#EC3651" transform="translate(788,485)"/>
<path d="M0 0 C1.16223996 4.76518384 1.29154468 8.62444676 -1 13 C-5.85484143 19.50916379 -11.76604654 24.63113277 -18.1015625 29.64453125 C-22.22828508 32.99818855 -26.09062774 36.60329801 -29.98046875 40.2265625 C-32.22142794 42.30629071 -34.5100764 44.32178655 -36.8203125 46.32421875 C-41.99421684 50.83105702 -46.94072958 55.57118306 -51.90820312 60.30273438 C-55.49409069 63.70108229 -59.06721178 66.99804923 -63 70 C-64.98 69.01 -66.96 68.02 -69 67 C-69 62.05091746 -67.1978212 60.57424907 -63.9375 57.25 C-62.98715797 56.25628137 -62.03795897 55.26146847 -61.08984375 54.265625 C-60.58622314 53.74057373 -60.08260254 53.21552246 -59.5637207 52.67456055 C-57.94231061 50.93822147 -56.39678694 49.15200759 -54.8515625 47.34765625 C-49.96026904 41.72410916 -44.70118766 36.45903221 -39.4375 31.1875 C-38.90565094 30.65431152 -38.37380188 30.12112305 -37.82583618 29.57177734 C-29.98151898 21.73173642 -22.04509561 14.45067445 -13 8 C-11.92631153 7.19677519 -10.85470416 6.39076129 -9.78515625 5.58203125 C-2.32003012 0 -2.32003012 0 0 0 Z " fill="#F75366" transform="translate(527,257)"/>
<path d="M0 0 C-2.83951693 2.35679905 -5.77350109 3.88311326 -9.12841797 5.39819336 C-16.03583875 8.38960494 -16.03583875 8.38960494 -20.875 13.9375 C-21.24625 14.948125 -21.6175 15.95875 -22 17 C-20.7625 16.979375 -19.525 16.95875 -18.25 16.9375 C-15.3359175 16.93233319 -12.79046673 17.06984442 -10 18 C-10 18.99 -10 19.98 -10 21 C-8.68 21.66 -7.36 22.32 -6 23 C-6.0721875 23.59167969 -6.144375 24.18335938 -6.21875 24.79296875 C-6.69910023 28.88261722 -7.13310151 32.8738531 -7 37 C-7.99 36.505 -7.99 36.505 -9 36 C-9.66 36.99 -10.32 37.98 -11 39 C-11.50559908 37.56445975 -12.0042749 36.1264798 -12.5 34.6875 C-12.7784375 33.88699219 -13.056875 33.08648437 -13.34375 32.26171875 C-14 30 -14 30 -14 27 C-14.67466309 27.09087891 -15.34932617 27.18175781 -16.04443359 27.27539062 C-19.15376621 27.69032295 -22.26433115 28.09521191 -25.375 28.5 C-26.43589844 28.64308594 -27.49679687 28.78617187 -28.58984375 28.93359375 C-35.12281511 29.77526491 -41.41338983 30.14664067 -48 30 C-48 25.38 -48 20.76 -48 16 C-48.66 15.67 -49.32 15.34 -50 15 C-49.34 15 -48.68 15 -48 15 C-48 13.02 -48 11.04 -48 9 C-44.22904352 7.59141891 -40.45704831 6.18565987 -36.68408203 4.7824707 C-35.40156899 4.30504948 -34.11933887 3.82686748 -32.83740234 3.34790039 C-30.99131212 2.65830191 -29.14410571 1.97169387 -27.296875 1.28515625 C-26.18666992 0.87144775 -25.07646484 0.45773926 -23.93261719 0.03149414 C-15.60586945 -2.89728618 -8.41893084 -2.44914352 0 0 Z " fill="#F65166" transform="translate(592,238)"/>
<path d="M0 0 C4.15401517 2.64955513 7.75523372 5.44218975 11.375 8.8125 C14.58590812 11.78042047 17.80334759 14.71916553 21.125 17.5625 C36.57830829 31.05247814 36.57830829 31.05247814 40 38 C39.81640625 40.11328125 39.81640625 40.11328125 39 42 C36.3125 43.875 36.3125 43.875 33 45 C29.37322717 44.20210998 26.26037586 42.755587 23 41 C22.690625 41.94875 22.38125 42.8975 22.0625 43.875 C21 47 21 47 20 49 C16.42559208 48.3921075 14.35977816 46.95150156 11.5625 44.6875 C10.82128906 44.09324219 10.08007812 43.49898438 9.31640625 42.88671875 C8.55199219 42.26410156 7.78757812 41.64148438 7 41 C6.13729492 40.42644775 5.27458984 39.85289551 4.38574219 39.26196289 C2 37 2 37 1.43237305 34.15917969 C1.45855713 33.09086914 1.48474121 32.02255859 1.51171875 30.921875 C1.52783203 29.76171875 1.54394531 28.6015625 1.56054688 27.40625 C1.60244141 26.1996875 1.64433594 24.993125 1.6875 23.75 C1.71005859 22.52796875 1.73261719 21.3059375 1.75585938 20.046875 C1.81478242 17.03001498 1.89700735 14.01562485 2 11 C3.32 11 4.64 11 6 11 C5.566875 10.37351563 5.13375 9.74703125 4.6875 9.1015625 C4.130625 8.28429687 3.57375 7.46703125 3 6.625 C2.443125 5.81289062 1.88625 5.00078125 1.3125 4.1640625 C0 2 0 2 0 0 Z " fill="#F27282" transform="translate(729,228)"/>
<path d="M0 0 C3.0794929 1.50759397 6.0856625 3.11080858 9.0625 4.8125 C9.91972656 5.29332031 10.77695312 5.77414062 11.66015625 6.26953125 C14.36119212 8.26712539 15.58305416 9.96634218 17 13 C17 14.32 17 15.64 17 17 C9.32940927 20.8242744 1.69535157 24.32122145 -6.5 26.875 C-7.14517578 27.07762451 -7.79035156 27.28024902 -8.45507812 27.48901367 C-14.95175953 29.43482686 -21.23628601 30.12632319 -28 30.1328125 C-29.299375 30.13410156 -30.59875 30.13539063 -31.9375 30.13671875 C-32.60523438 30.13462402 -33.27296875 30.1325293 -33.9609375 30.13037109 C-35.9948675 30.12501352 -38.02857673 30.1303382 -40.0625 30.13671875 C-42.0115625 30.13478516 -42.0115625 30.13478516 -44 30.1328125 C-45.175625 30.13168457 -46.35125 30.13055664 -47.5625 30.12939453 C-51.10210572 29.99615653 -54.50479714 29.56117176 -58 29 C-47.56729476 20.25417496 -30.4562786 17.0423128 -17.5 14.5 C-10.63135444 13.04353511 -10.63135444 13.04353511 -5 9 C-3.12376177 6.09258526 -1.5040831 3.11464995 0 0 Z " fill="#FAAB5B" transform="translate(368,594)"/>
<path d="M0 0 C1.49167379 3.62263634 2.77370552 7.27989658 4 11 C3.37246826 11.13986328 2.74493652 11.27972656 2.09838867 11.42382812 C-15.30727443 15.36820282 -32.23992156 20.026732 -47.28515625 29.96875 C-49 31 -49 31 -51 31 C-51.50980881 29.29456816 -52.00738268 27.58547682 -52.5 25.875 C-52.7784375 24.92367188 -53.056875 23.97234375 -53.34375 22.9921875 C-54.02257018 19.89709074 -54.04603818 17.1574516 -54 14 C-49.9651 12.0170673 -45.92655619 10.04181914 -41.88452148 8.07348633 C-40.51110831 7.40336686 -39.13869744 6.73118894 -37.76733398 6.05688477 C-35.79152664 5.08582239 -33.81218643 4.12231554 -31.83203125 3.16015625 C-31.22349808 2.85908463 -30.6149649 2.558013 -29.98799133 2.24781799 C-20.49318609 -2.33762853 -10.20711397 -1.57032523 0 0 Z " fill="#FA8D95" transform="translate(265,287)"/>
<path d="M0 0 C5.27361755 0.31641705 9.55597135 1.49129114 14.5 3.375 C30.39390034 9.1820639 46.22429193 9.63679388 63 10 C63 12.31 63 14.62 63 17 C18.30868392 23.64844109 18.30868392 23.64844109 8 17 C7.08734375 16.46117187 6.1746875 15.92234375 5.234375 15.3671875 C4.41453125 14.87476563 3.5946875 14.38234375 2.75 13.875 C1.91984375 13.37742187 1.0896875 12.87984375 0.234375 12.3671875 C-1.53525305 11.28437314 -3.27380736 10.15079509 -5 9 C-3.35 6.03 -1.7 3.06 0 0 Z " fill="#F03B55" transform="translate(398,539)"/>
<path d="M0 0 C4.47473158 -0.30544243 4.47473158 -0.30544243 6.7734375 1.03125 C15.59676268 9.1228848 24.39975442 17.65031114 25.12890625 30.22265625 C25.25561465 35.48527826 25.1547355 40.73899288 25 46 C19.06 46.495 19.06 46.495 13 47 C11.02 51.95 11.02 51.95 9 57 C8.34 57 7.68 57 7 57 C7 57.66 7 58.32 7 59 C6.34 59 5.68 59 5 59 C5.30775546 55.91617386 5.6220359 52.83304635 5.9375 49.75 C6.02451172 48.87730469 6.11152344 48.00460937 6.20117188 47.10546875 C6.33168945 45.83896484 6.33168945 45.83896484 6.46484375 44.546875 C6.543396 43.77182617 6.62194824 42.99677734 6.70288086 42.19824219 C6.9903581 40.07133581 7.45905592 38.07460675 8 36 C8.77447864 30.6265554 9.239833 25.92621757 6.21484375 21.2265625 C5.11849609 19.90785156 5.11849609 19.90785156 4 18.5625 C-0.45848909 13.19347441 -0.72701307 9.29471828 -0.28125 2.45703125 C-0.14203125 1.24080078 -0.14203125 1.24080078 0 0 Z " fill="#F3B262" transform="translate(677,431)"/>
<path d="M0 0 C5.76688077 2.04967449 10.93248359 5.2612904 16.23046875 8.27929688 C20.74019064 10.82217367 25.21815847 13.01970022 30 15 C31.50186364 15.72561951 32.98669468 16.48952856 34.4375 17.3125 C35.45650391 17.86357422 35.45650391 17.86357422 36.49609375 18.42578125 C38 20 38 20 38.09399414 23.09838867 C38.06297607 24.05592041 38.03195801 25.01345215 38 26 C32.71681014 26.27307748 27.43776291 26.47199715 22.14916992 26.60424805 C20.35319463 26.65938693 18.5577093 26.73432899 16.76342773 26.82983398 C1.88685129 27.6015177 1.88685129 27.6015177 -2.77685547 23.64306641 C-5.65992617 19.27523972 -7 16.26749545 -7 11 C-5.46875 8.203125 -5.46875 8.203125 -3.5 5.25 C-2.8503125 4.26515625 -2.200625 3.2803125 -1.53125 2.265625 C-1.0259375 1.51796875 -0.520625 0.7703125 0 0 Z " fill="#F65E6F" transform="translate(510,514)"/>
<path d="M0 0 C5.28 0 10.56 0 16 0 C16 8 16 8 14.9375 11.0625 C13.73854979 14.81921065 14.1918623 17.15211591 15 21 C21.20230092 32.95684215 31.18304627 44.83750986 41 54 C39 55 39 55 36.71484375 54.3984375 C33.78516502 53.31886531 30.88721672 52.1886284 28 51 C27.20464844 50.68289063 26.40929687 50.36578125 25.58984375 50.0390625 C14.12654704 44.6612196 6.77496483 30.34017098 2 19 C-0.28139457 12.08893503 -1.20798082 7.24788492 0 0 Z " fill="#EE94A6" transform="translate(36,522)"/>
<path d="M0 0 C0.66 0.33 1.32 0.66 2 1 C0.57494141 2.32064453 0.57494141 2.32064453 -0.87890625 3.66796875 C-2.10754554 4.84033448 -3.33536814 6.01355652 -4.5625 7.1875 C-5.19091797 7.76564453 -5.81933594 8.34378906 -6.46679688 8.93945312 C-10.03296543 12.1667268 -10.03296543 12.1667268 -11.07421875 16.61328125 C-8.07645279 23.27377217 -4.45890598 29.08698462 1 34 C3.06204331 35.95428808 5.03522801 37.94384326 7 40 C7 40.66 7 41.32 7 42 C2.7310972 44.43937303 -0.09330685 45.41873227 -5 45 C-7.54541016 43.85424805 -7.54541016 43.85424805 -10.0390625 42.26171875 C-10.94914063 41.68873047 -11.85921875 41.11574219 -12.796875 40.52539062 C-13.73015625 39.91888672 -14.6634375 39.31238281 -15.625 38.6875 C-16.56601562 38.09259766 -17.50703125 37.49769531 -18.4765625 36.88476562 C-22.42214669 34.37674158 -26.2874729 31.8448504 -30 29 C-29.64980313 27.47326453 -29.26818155 25.95373458 -28.875 24.4375 C-28.66617187 23.59058594 -28.45734375 22.74367188 -28.2421875 21.87109375 C-24.65908707 13.58939936 -17.9009887 9.70752046 -10.25 5.5 C-9.29222656 4.95085937 -8.33445312 4.40171875 -7.34765625 3.8359375 C-2.12967902 0.90680501 -2.12967902 0.90680501 0 0 Z " fill="#EDB46F" transform="translate(528,448)"/>
<path d="M0 0 C0 2.64 0 5.28 0 8 C1.39412109 7.87431641 1.39412109 7.87431641 2.81640625 7.74609375 C15.09490334 6.73462214 15.09490334 6.73462214 21 8 C21 9.65 21 11.3 21 13 C19.97640381 13.11593506 18.95280762 13.23187012 17.89819336 13.35131836 C14.0756486 13.7845418 10.25325681 14.21910234 6.4309082 14.65405273 C4.78120962 14.84158823 3.13147059 15.02876827 1.48168945 15.21557617 C-0.89903492 15.48521424 -3.27960758 15.75615941 -5.66015625 16.02734375 C-6.38960953 16.10967758 -7.11906281 16.19201141 -7.87062073 16.27684021 C-12.25959777 16.7783429 -16.62965391 17.35560588 -21 18 C-20.67 21.3 -20.34 24.6 -20 28 C-24.29 26.02 -28.58 24.04 -33 22 C-33 15.35040747 -31.96123844 12.17640096 -28 7 C-25.51245859 4.89235508 -22.91269732 3.44226405 -20 2 C-18.948125 1.38125 -17.89625 0.7625 -16.8125 0.125 C-11.13275055 -1.55099164 -5.81601118 -0.72590816 0 0 Z " fill="#EC9E53" transform="translate(486,635)"/>
<path d="M0 0 C0.9375 2.6875 0.9375 2.6875 1 5 C0.34 5 -0.32 5 -1 5 C-1.04898438 5.56847656 -1.09796875 6.13695312 -1.1484375 6.72265625 C-1.63143081 11.71081129 -2.47638163 16.22599578 -4 21 C-8.31631318 20.36024626 -11.7689112 18.82997578 -15.6875 16.9375 C-17.00445621 16.30831912 -18.322203 15.68079107 -19.640625 15.0546875 C-20.33865234 14.72307617 -21.03667969 14.39146484 -21.75585938 14.04980469 C-25.79031608 12.16249357 -29.86420972 10.36407754 -33.9375 8.5625 C-34.73696045 8.20857178 -35.5364209 7.85464355 -36.36010742 7.48999023 C-38.23955295 6.6588197 -40.11969692 5.82922873 -42 5 C-42 4.34 -42 3.68 -42 3 C-42.99 2.34 -43.98 1.68 -45 1 C-42.50056796 0.51770668 -40.00051757 0.03910574 -37.5 -0.4375 C-36.80390625 -0.57220703 -36.1078125 -0.70691406 -35.390625 -0.84570312 C-8.75153389 -5.90219727 -8.75153389 -5.90219727 0 0 Z " fill="#F56D7D" transform="translate(340,472)"/>
<path d="M0 0 C1.65 0 3.3 0 5 0 C5.16777849 4.21728923 5.32832034 8.43477318 5.48217773 12.65258789 C5.53552897 14.08723348 5.5908529 15.52180714 5.64819336 16.95629883 C5.730297 19.01888519 5.80528996 21.08162668 5.87890625 23.14453125 C5.9260376 24.38565674 5.97316895 25.62678223 6.02172852 26.90551758 C6 30 6 30 5 33 C-1.93 33 -8.86 33 -16 33 C-16 24.75 -16 16.5 -16 8 C-10.72 8 -5.44 8 0 8 C0 5.36 0 2.72 0 0 Z " fill="#FBA2A4" transform="translate(135,410)"/>
<path d="M0 0 C5.28 1.32 10.56 2.64 16 4 C10.14348089 15.71303822 1.29874711 26.07554447 -7.625 35.5625 C-8.31158691 36.29428467 -8.99817383 37.02606934 -9.70556641 37.7800293 C-14.59656509 42.8655217 -14.59656509 42.8655217 -18 44 C-16.20842111 39.19332492 -13.72835157 34.94074156 -11.14453125 30.5234375 C-9.63626126 27.95812888 -9.63626126 27.95812888 -11 25 C-11.969375 24.690625 -12.93875 24.38125 -13.9375 24.0625 C-17 23 -17 23 -18.25 20.9375 C-18.4975 20.298125 -18.745 19.65875 -19 19 C-19.66 18.67 -20.32 18.34 -21 18 C-21 17.34 -21 16.68 -21 16 C-14.4 13.36 -7.8 10.72 -1 8 C-0.67 5.36 -0.34 2.72 0 0 Z " fill="#D73E5D" transform="translate(690,639)"/>
<path d="M0 0 C0.66 0.33 1.32 0.66 2 1 C0.68 2.65 -0.64 4.3 -2 6 C-1.45472656 6.10957031 -0.90945313 6.21914063 -0.34765625 6.33203125 C3.81800021 7.20788722 7.92722675 8.19540222 12 9.4375 C13.11375 9.77587891 13.11375 9.77587891 14.25 10.12109375 C16 11 16 11 17 14 C15.7711083 16.65824091 14.49812607 19.14608591 13.0625 21.6875 C12.67642578 22.38939453 12.29035156 23.09128906 11.89257812 23.81445312 C10.93738227 25.54795672 9.96984614 27.27465009 9 29 C-10.63572201 23.76096788 -10.63572201 23.76096788 -16 17 C-16.50267016 13.96387225 -16.18009158 11.0615568 -16 8 C-13.37964982 6.63610475 -10.75443001 5.28367827 -8.125 3.9375 C-7.37863281 3.54755859 -6.63226563 3.15761719 -5.86328125 2.75585938 C-4.79013672 2.20961914 -4.79013672 2.20961914 -3.6953125 1.65234375 C-3.03547363 1.31195068 -2.37563477 0.97155762 -1.69580078 0.62084961 C-1.13618652 0.41596924 -0.57657227 0.21108887 0 0 Z " fill="#EF934A" transform="translate(285,602)"/>
<path d="M0 0 C1.89453125 0.734375 1.89453125 0.734375 4.89453125 2.359375 C5.89453125 5.359375 5.89453125 5.359375 4.85546875 7.8828125 C0.21017637 16.2351855 -5.02870325 22.17098922 -13.10546875 27.359375 C-13.76546875 27.359375 -14.42546875 27.359375 -15.10546875 27.359375 C-16.31069095 25.13827972 -17.49434279 22.9095885 -18.66796875 20.671875 C-19.18133789 19.73311523 -19.18133789 19.73311523 -19.70507812 18.77539062 C-21.17379052 15.94181418 -22.12512594 13.85010271 -21.99609375 10.62890625 C-20.49936021 6.81486156 -17.91665213 4.27095778 -15.10546875 1.359375 C-14.50734375 0.699375 -13.90921875 0.039375 -13.29296875 -0.640625 C-9.01667112 -2.59550392 -4.35950068 -1.3264529 0 0 Z " fill="#E25874" transform="translate(675.10546875,661.640625)"/>
<path d="M0 0 C-3.87344156 3.20527289 -8.30016428 5.1292038 -12.8671875 7.13085938 C-16.37461954 8.78296524 -17.91991222 9.866842 -19.9453125 13.234375 C-20.62335937 14.14703125 -21.30140625 15.0596875 -22 16 C-24.96905509 16.3246419 -26.99112317 16.32113499 -29.875 15.9375 C-30.56980469 15.87111328 -31.26460937 15.80472656 -31.98046875 15.73632812 C-36.02346703 15.32898272 -39.98931133 14.66844811 -44 14 C-44.99 18.62 -45.98 23.24 -47 28 C-47.33 28 -47.66 28 -48 28 C-48 24.04 -48 20.08 -48 16 C-48.66 15.67 -49.32 15.34 -50 15 C-49.34 15 -48.68 15 -48 15 C-48 13.02 -48 11.04 -48 9 C-44.22904352 7.59141891 -40.45704831 6.18565987 -36.68408203 4.7824707 C-35.40156899 4.30504948 -34.11933887 3.82686748 -32.83740234 3.34790039 C-30.99131212 2.65830191 -29.14410571 1.97169387 -27.296875 1.28515625 C-26.18666992 0.87144775 -25.07646484 0.45773926 -23.93261719 0.03149414 C-15.60586945 -2.89728618 -8.41893084 -2.44914352 0 0 Z " fill="#F9596C" transform="translate(592,238)"/>
<path d="M0 0 C1.90570822 3.81141644 2.74444243 6.93608974 3.6875 11.0625 C5.45879324 18.31184593 8.54327924 23.97841943 13 30 C1.60709317 26.48283969 -8.95112945 19.73803503 -16 10 C-16.88153991 6.50910197 -16.65033581 4.60640767 -16 1 C-8.08 0.505 -8.08 0.505 0 0 Z " fill="#E75D71" transform="translate(256,676)"/>
<path d="M0 0 C8.6299998 0.44678473 17.22125795 1.0563115 25.8125 2 C26.58255371 2.0829834 27.35260742 2.1659668 28.14599609 2.25146484 C31.24237879 2.60349942 34.0343698 3.0114566 37 4 C35.125 9.75 35.125 9.75 34 12 C22.78 12 11.56 12 0 12 C0 8.04 0 4.08 0 0 Z " fill="#FAA8AE" transform="translate(119,506)"/>
<path d="M0 0 C5.729225 -0.26271578 9.84530276 1.69470484 15 4 C15.99 4.43570313 16.98 4.87140625 18 5.3203125 C24.89464381 8.53898551 30.89290664 12.27386502 36 18 C36 18.66 36 19.32 36 20 C25.05040176 20.41934632 15.43258232 19.65466883 7 12 C0 3.57933579 0 3.57933579 0 0 Z " fill="#5C061C" transform="translate(378,544)"/>
<path d="M0 0 C0.59312988 0.22107422 1.18625977 0.44214844 1.79736328 0.66992188 C1.57048828 1.18554688 1.34361328 1.70117188 1.10986328 2.23242188 C0.61671742 6.07895958 1.92298743 8.34441633 3.79736328 11.66992188 C7.33687 13.97829582 10.63331136 15.0575613 14.79736328 15.66992188 C14.79736328 15.99992187 14.79736328 16.32992188 14.79736328 16.66992188 C13.9962915 16.75556396 13.19521973 16.84120605 12.36987305 16.92944336 C8.6998494 17.32191249 5.02985615 17.71466505 1.35986328 18.10742188 C0.09980469 18.24212891 -1.16025391 18.37683594 -2.45849609 18.515625 C-9.04143034 19.22032553 -15.62328293 19.93251878 -22.20263672 20.66992188 C-17.98714709 15.66805651 -13.64859375 10.84900908 -9.07763672 6.16992188 C-8.47048828 5.52539062 -7.86333984 4.88085938 -7.23779297 4.21679688 C-6.64611328 3.61351562 -6.05443359 3.01023437 -5.44482422 2.38867188 C-4.91743652 1.84146484 -4.39004883 1.29425781 -3.84667969 0.73046875 C-2.20263672 -0.33007812 -2.20263672 -0.33007812 0 0 Z " fill="#F4969E" transform="translate(316.20263671875,452.330078125)"/>
<path d="M0 0 C1.45885549 2.91771097 0.50880949 4.63682616 -0.29296875 7.7734375 C-0.59195068 8.9785498 -0.89093262 10.18366211 -1.19897461 11.42529297 C-1.44138382 12.39133453 -1.44138382 12.39133453 -1.68869019 13.37689209 C-5.54192984 28.81201068 -8.06802616 44.20164765 -10 60 C-10.66 59.01 -11.32 58.02 -12 57 C-12.556875 56.2575 -13.11375 55.515 -13.6875 54.75 C-16.38497813 49.09814107 -13.42526445 42.74751069 -11.625 37.0625 C-9.84125996 31.26518555 -8.44346164 25.54313882 -7.4375 19.5625 C-4.94799015 4.94799015 -4.94799015 4.94799015 0 0 Z " fill="#E42746" transform="translate(746,496)"/>
<path d="M0 0 C0 4.07354199 -2.05253033 6.28943478 -4.3125 9.5 C-10.38727543 18.38086781 -15.76869705 27.60222288 -21 37 C-21.42812988 37.76828125 -21.85625977 38.5365625 -22.29736328 39.328125 C-29.39915463 52.18184816 -35.32152999 65.46479159 -41 79 C-42.04198256 75.83436616 -41.98544222 74.13116741 -40.76953125 71.04296875 C-40.46764893 70.27210938 -40.1657666 69.50125 -39.85473633 68.70703125 C-39.51079834 67.87558594 -39.16686035 67.04414063 -38.8125 66.1875 C-38.45373779 65.3109375 -38.09497559 64.434375 -37.7253418 63.53125 C-28.13596398 40.69230354 -15.3025286 19.45437745 0 0 Z " fill="#E93D57" transform="translate(441,306)"/>
<path d="M0 0 C0 0.33 0 0.66 0 1 C-1.05316406 1.21914063 -2.10632813 1.43828125 -3.19140625 1.6640625 C-12.20491864 3.62091581 -20.41363467 6.1319117 -28.828125 9.92578125 C-32.20932969 11.07089368 -33.67430061 11.16399479 -37 10 C-37.99 9.34 -38.98 8.68 -40 8 C-26.97463682 2.44280458 -14.26110342 -0.71703872 0 0 Z " fill="#E42847" transform="translate(788,485)"/>
<path d="M0 0 C2.27866072 2.8112089 3.70059423 5.3863949 4.9375 8.78125 C5.27394531 9.6993042 5.61039063 10.6173584 5.95703125 11.56323242 C6.30121094 12.53236572 6.64539063 13.50149902 7 14.5 C7.53173828 15.99720581 7.53173828 15.99720581 8.07421875 17.5246582 C9.06379303 20.34508286 10.03602675 23.1707385 11 26 C11.391875 27.13824219 11.78375 28.27648437 12.1875 29.44921875 C14.8508574 38.42524537 14.26171814 47.73323909 14 57 C13.67 57 13.34 57 13 57 C12.86948242 56.19481934 12.73896484 55.38963867 12.60449219 54.56005859 C12.10409842 51.49854262 11.5961543 48.43839053 11.08349609 45.37890625 C10.75968867 43.43321712 10.44416859 41.48615445 10.12890625 39.5390625 C8.21752053 28.18658971 5.73212062 17.27506504 0.75 6.84375 C-0.20462727 4.49695796 -0.3229916 2.5031849 0 0 Z " fill="#ED3C57" transform="translate(789,300)"/>
<path d="M0 0 C0.33 0 0.66 0 1 0 C1.29683144 22.67107197 1.28311188 43.7640701 -8 65 C-8.99 65.99 -8.99 65.99 -10 67 C-8.87554713 61.65884889 -7.55835073 56.43730564 -6.0625 51.1875 C-1.48046152 34.38669224 -0.42716436 17.34145705 0 0 Z " fill="#F4A057" transform="translate(707,487)"/>
<path d="M0 0 C1.51146286 4.05540386 0.69567822 8.0185844 0.125 12.1875 C0.03347656 12.92419922 -0.05804688 13.66089844 -0.15234375 14.41992188 C-0.86345899 19.86345899 -0.86345899 19.86345899 -2 21 C-3.66617115 21.04063832 -5.33388095 21.042721 -7 21 C-7.33 21.66 -7.66 22.32 -8 23 C-8.125 16.375 -8.125 16.375 -7 13 C-6.34 13 -5.68 13 -5 13 C-4.9175 12.34 -4.835 11.68 -4.75 11 C-3.75240209 7.00960837 -1.92833317 3.61450357 0 0 Z " fill="#F6959A" transform="translate(405,372)"/>
<path d="M0 0 C0.66 0.33 1.32 0.66 2 1 C-4.39010309 8.04549828 -10.87139986 14.98855978 -17.5625 21.75 C-18.15756348 22.3579541 -18.75262695 22.9659082 -19.36572266 23.59228516 C-23.64541141 27.8818038 -23.64541141 27.8818038 -27 29 C-25.64686058 26.01250136 -24.11284688 23.81617902 -21.875 21.42578125 C-21.2550415 20.76191406 -20.63508301 20.09804688 -19.99633789 19.4140625 C-19.33754639 18.72054688 -18.67875488 18.02703125 -18 17.3125 C-17.33025146 16.60222656 -16.66050293 15.89195312 -15.97045898 15.16015625 C-10.88439035 9.81499866 -5.63304638 4.77152164 0 0 Z " fill="#EF6375" transform="translate(490,251)"/>
<path d="M0 0 C1.98 0.66 3.96 1.32 6 2 C1.96886123 7.87874404 -2.47035403 12.50891698 -8 17 C-8.33 16.34 -8.66 15.68 -9 15 C-7.59104764 12.38211357 -6.13756909 9.88954328 -4.5625 7.375 C-3.9118457 6.31539062 -3.9118457 6.31539062 -3.24804688 5.234375 C-2.17251868 3.48516432 -1.08716275 1.74200346 0 0 Z " fill="#E52C4D" transform="translate(681,666)"/>
<path d="M0 0 C2.31 0 4.62 0 7 0 C6.54775239 5.91492272 5.8417395 11.35199888 4 17 C3.34 17 2.68 17 2 17 C1.34 11.39 0.68 5.78 0 0 Z " fill="#F89CA0" transform="translate(416,402)"/>
<path d="M0 0 C0 4.92855964 -3.74037308 7.54169105 -7 11 C-7.62519531 11.66644531 -8.25039063 12.33289063 -8.89453125 13.01953125 C-13.88504348 18.1726671 -19.32241405 22.62546656 -25 27 C-25.66 26.67 -26.32 26.34 -27 26 C-26.30608154 25.351521 -26.30608154 25.351521 -25.59814453 24.68994141 C-16.93477942 16.58619739 -8.29747998 8.48096234 0 0 Z " fill="#F45368" transform="translate(547,557)"/>
<path d="M0 0 C0.66 0.33 1.32 0.66 2 1 C-2.29 5.29 -6.58 9.58 -11 14 C-13 12 -13 12 -13.125 9.375 C-13.08375 8.59125 -13.0425 7.8075 -13 7 C-10.88002166 5.80266012 -8.75486324 4.61701287 -6.625 3.4375 C-6.02171875 3.09525391 -5.4184375 2.75300781 -4.796875 2.40039062 C-3.23021759 1.53872905 -1.61709138 0.76281817 0 0 Z " fill="#F4A75D" transform="translate(528,448)"/>
<path d="M0 0 C0.33 3.3 0.66 6.6 1 10 C-2.96 8.02 -6.92 6.04 -11 4 C-10 2 -10 2 -6.625 0.875 C-3 0 -3 0 0 0 Z " fill="#F5A55A" transform="translate(465,653)"/>
<path d="M0 0 C5.96392565 3.60974447 10.89628532 8.27956824 16 13 C14 14 14 14 10.25 13.125 C4.97849126 11.07603766 2.46351269 6.91769388 0 2 C0 1.34 0 0.68 0 0 Z " fill="#F13F5A" transform="translate(729,228)"/>
<path d="M0 0 C-4.09874125 1.53574781 -8.20475689 3.05101224 -12.3125 4.5625 C-13.47974609 5.00013672 -14.64699219 5.43777344 -15.84960938 5.88867188 C-16.96787109 6.29794922 -18.08613281 6.70722656 -19.23828125 7.12890625 C-20.7857605 7.70233765 -20.7857605 7.70233765 -22.36450195 8.28735352 C-25 9 -25 9 -28 8 C-24.94080952 6.67968946 -21.87711716 5.3701594 -18.8125 4.0625 C-17.94818359 3.68931641 -17.08386719 3.31613281 -16.19335938 2.93164062 C-15.35224609 2.57392578 -14.51113281 2.21621094 -13.64453125 1.84765625 C-12.87471924 1.51773682 -12.10490723 1.18781738 -11.31176758 0.84790039 C-7.25273302 -0.64085523 -4.17460694 -1.39153565 0 0 Z " fill="#E57C44" transform="translate(349,578)"/>
<path d="M0 0 C3.28247841 0.87532757 5.50854152 1.50854152 7.9375 3.9375 C8.288125 4.618125 8.63875 5.29875 9 6 C8.67 6.99 8.34 7.98 8 9 C6.66368764 7.6905332 5.33102075 6.37734515 4 5.0625 C3.2575 4.33160156 2.515 3.60070312 1.75 2.84765625 C0 1 0 1 0 0 Z " fill="#F9BA68" transform="translate(375,599)"/>
<path d="M0 0 C0.66 0.33 1.32 0.66 2 1 C0.4375 3 0.4375 3 -2 5 C-5.75 5.25 -5.75 5.25 -9 5 C-6.32239719 2.32239719 -3.52050129 1.32018799 0 0 Z " fill="#E77D44" transform="translate(285,602)"/>
<path d="M0 0 C0.33 0 0.66 0 1 0 C1.06058594 0.72445313 1.12117188 1.44890625 1.18359375 2.1953125 C1.61483433 7.17116533 2.07047641 12.08680391 3 17 C1.51171875 15.94921875 1.51171875 15.94921875 0 14 C-0.29296875 10.64453125 -0.29296875 10.64453125 -0.1875 6.8125 C-0.16042969 5.54019531 -0.13335937 4.26789063 -0.10546875 2.95703125 C-0.07066406 1.98121094 -0.03585937 1.00539063 0 0 Z " fill="#E23D56" transform="translate(394,403)"/>
<path d="M0 0 C3.63 0 7.26 0 11 0 C11 0.99 11 1.98 11 3 C7.37 2.34 3.74 1.68 0 1 C0 0.67 0 0.34 0 0 Z " fill="#F77D94" transform="translate(41,523)"/>
<path d="M0 0 C0.99 0.33 1.98 0.66 3 1 C-0.465 3.97 -0.465 3.97 -4 7 C-4.66 6.67 -5.32 6.34 -6 6 C-4.02 4.02 -2.04 2.04 0 0 Z " fill="#EC4C62" transform="translate(526,577)"/>
</svg>
